<svg width="140" height="47" viewBox="0 0 140 47" fill="none" xmlns="http://www.w3.org/2000/svg"><g clip-path="url(#clip0)"><path d="M35.66 10.849h11.356l-.692 3.552h-7.19l-.889 4.563h6.745l-.692 3.528H37.57l-1.466 7.834h-4.118l3.681-19.486m10.385 19.478l2.676-14.161h4.118l-2.677 14.16h-4.117zm3.253-17.92c.033-1.417 1.12-2.37 2.388-2.37 1.21 0 2.067.812 2.067 2.055 0 1.474-1.12 2.335-2.446 2.335-1.153 0-2.01-.787-2.01-2.029m4.39 17.929l1.581-8.414c.404-2.136.577-4.513.725-5.722h3.59c-.09.952-.172 1.905-.255 2.89h.091c.98-1.88 2.553-3.213 4.488-3.213.256 0 .52 0 .775.033l-.808 4.05c-.206-.034-.428-.034-.667-.034-2.643 0-3.878 2.369-4.397 5.143l-.98 5.259h-4.118m22.375-.829c-1.638.829-3.68 1.102-5.237 1.102-4.027 0-6.094-2.286-6.094-5.954 0-4.307 3.104-8.812 8.194-8.812 2.85 0 4.883 1.59 4.883 4.224 0 3.61-3.475 4.919-9.14 4.77 0 .406.147 1.035.427 1.44.544.721 1.491 1.102 2.702 1.102a8.822 8.822 0 003.936-.894l.288 3.006.041.016zm-3.672-10.624c-1.927 0-3.023 1.59-3.295 2.923 3.22.033 4.826-.43 4.826-1.706 0-.72-.576-1.217-1.523-1.217" fill="#E42927"/><path d="M82.517 11.121c1.639-.29 3.476-.43 5.345-.43 3.022 0 5.435.695 7.074 2.103 1.548 1.3 2.528 3.238 2.553 6.104 0 3.76-1.581 7.022-4.002 8.96-2.24 1.797-5.09 2.567-9.29 2.567-2.33 0-4.34-.174-5.287-.348l3.59-18.964.017.008zm1.137 15.81c.486.09 1.095.115 1.811.115 2.24 0 4.225-.811 5.493-2.285 1.326-1.507 2.01-3.528 2.01-5.872 0-3.064-1.697-4.886-5.123-4.886-.724 0-1.325.034-1.754.116l-2.446 12.803m14.766 3.395l1.581-8.413c.404-2.137.577-4.514.725-5.723h3.591c-.091.953-.173 1.905-.256 2.89h.091c.972-1.88 2.553-3.213 4.488-3.213.255 0 .519 0 .774.034l-.807 4.05c-.206-.034-.428-.034-.667-.034-2.643 0-3.887 2.368-4.398 5.143l-.971 5.258h-4.118m25.415-8.695c0 5.151-3.509 8.96-8.392 8.96-3.566 0-5.954-2.343-5.954-5.88 0-4.918 3.393-8.935 8.391-8.935 3.764 0 5.955 2.576 5.955 5.797v.058zm-10.064 2.981c0 1.648.807 2.75 2.24 2.75 2.273 0 3.533-3.313 3.533-5.756 0-1.3-.544-2.691-2.215-2.691-2.389 0-3.591 3.503-3.566 5.722m10.566 11.817l2.289-14.79c.313-1.656.659-4.016.823-5.466h3.723l-.272 2.054h.058c1.153-1.532 2.816-2.368 4.513-2.368 3.047 0 4.513 2.46 4.513 5.35 0 4.919-3.245 9.424-8.137 9.424-1.153 0-2.125-.29-2.594-.58l.025-.249-.824 6.625h-4.117zm5.484-9.639c.461.43 1.096.696 1.903.696 2.215 0 3.936-3.18 3.936-5.955 0-1.126-.461-2.31-1.812-2.31-1.548 0-2.989 1.764-3.508 4.538l-.519 3.031z" fill="#374FA3"/><path d="M31.294 33.953h95.529v2.484h-95.53v-2.484zM15.96 0s-.914 6.145 2.29 11.51c3.212 5.367 5.65 6.907 9.01 13.334 3.36 6.426-.61 13.813-5.189 15.353 0 0 5.345-5.374.914-13.2-4.422-7.826-7.494-10.923-8.548-16.273-1.054-5.35.61-7.37 1.524-10.749m.906 26.608s-.256-3.528-2.47-7.735c-1.97-3.693-4.67-8.546-2.076-16.38 0 0-5.345 5.051-2.075 12.505 1.095 2.484 2.396 4.29 3.565 6.235a227.852 227.852 0 013.105 5.375" fill="#374FA3"/><path d="M9.19 38.425s7.124.919 9.85-1.847 3.163-6.236 1.013-11.47c0 0 4.274 4.505 3.566 9.516-.708 5.051-5.295 9.722-14.453 3.784" fill="#E42927"/><path d="M8.35 24.181s-2.593 2.534-2.47 6.625c.107 4.1 1.145 7.851 3.97 9.673 3.35 2.161 10.006 3.071 10.006 3.071l-11.909.845-6.184-12.132 1.013-6.451 3.458-3.785 2.133 2.145" fill="#1680C2"/><path d="M12.345 36.338s2.948-3.28 2.75-6.55c-.205-3.28-2.338-5.325-4.372-8.282-2.034-2.973-2.948-3.378-3.163-5.73-.205-2.352-.708-3.172-1.325-1.839-.61 1.334-2.035 4.298-3.056 6.236C2.166 22.111-.28 26.318.025 32.868c.305 6.55 3.87 10.128 7.124 12.083 3.253 1.946 10.788 1.946 14.247-.1 3.459-2.045 6.415-4.811 7.527-9.11 0 0-3.87 6.344-9.85 7.065-6.003.72-9.388-.613-11.81-3.586-2.42-2.973-2.75-7.983-2.24-11.055.512-3.073 1.83-3.38 1.83-3.38s2.544 2.253 3.87 3.479 1.73 1.333 1.828 3.28c.107 1.945-.61 4.81-.206 4.81" fill="#E42927"/></g><defs><clipPath id="clip0"><path fill="#fff" d="M0 0h140v46.375H0z"/></clipPath></defs></svg>