<svg width="48" height="48" viewBox="0 0 48 48" fill="none" xmlns="http://www.w3.org/2000/svg"><path fill-rule="evenodd" clip-rule="evenodd" d="M.34.662C.06.929.032 1.454.247 2.356c.383 1.593 1.54 2.836 3.22 3.47l.7.259 5.441.036 5.432.028v.865c0 .792.02.884.243 1.142l.243.285h5.488v4.493l-1.382.028c-1.353.037-1.39.046-2.025.35a4.036 4.036 0 00-1.857 1.85l-.29.598v11.324l.3.626c.363.755 1.11 1.52 1.782 1.823.27.12.485.276.485.34 0 .433.868 1.418 1.475 1.667l.298.12v2.844l-.84 1.124c-.924 1.224-.989 1.445-.616 1.878l.224.258h10.864l.224-.258c.374-.433.308-.654-.616-1.878l-.84-1.123V31.66l.308-.12c.598-.248 1.466-1.233 1.466-1.666 0-.065.214-.221.485-.35.7-.322 1.419-1.059 1.783-1.814l.298-.626V15.76l-.289-.598a4.037 4.037 0 00-1.857-1.85c-.635-.304-.672-.313-2.026-.35l-1.38-.028V8.441h5.431l.27-.267c.262-.257.271-.303.271-1.15v-.875l5.442-.028 5.432-.036.7-.258c1.68-.635 2.837-1.878 3.22-3.471.214-.902.186-1.427-.094-1.694-.289-.295-.7-.295-1.017-.028-.196.175-.261.35-.336.903-.056.377-.205.902-.327 1.16-.298.598-1.017 1.27-1.708 1.583l-.532.249H4.26l-.532-.249c-.69-.313-1.409-.985-1.708-1.583-.12-.258-.27-.783-.326-1.16-.075-.553-.14-.728-.336-.903C1.04.367.63.367.34.662zm31.034 5.846v.368H16.627V6.14h14.747v.368zm-5.927 6.352v4.373h-2.893l-.028-4.28c-.01-2.357 0-4.337.028-4.401.028-.092.382-.11 1.465-.092l1.428.027v4.373zm-4.433 3.554c.037 1.75.065 1.97.224 2.145.177.184.252.194 2.762.194 2.511 0 2.586-.01 2.763-.194.159-.175.187-.396.224-2.145l.047-1.943.924-.027c1.12-.028 1.726.12 2.268.58.214.175.485.516.606.764l.215.433v5.201c0 5.791.028 5.506-.653 6.251-.336.36-.607.488-.607.286 0-.055-.196-.304-.43-.552-.783-.82-.811-.83-5.357-.83-4.545 0-4.573.01-5.357.83-.233.248-.43.497-.43.552 0 .387-.914-.479-1.129-1.068-.102-.285-.13-1.363-.13-5.515 0-5.69-.019-5.45.597-6.14.541-.608 1.148-.801 2.483-.783l.933.019.047 1.942zm7.01 11.84c.14.082.316.313.41.497.15.313.15.386.037.718-.084.23-.252.45-.448.58-.317.211-.317.211-4.013.211-3.547 0-3.706-.009-4.004-.184-.364-.22-.607-.727-.523-1.086.103-.396.401-.746.719-.838.168-.055 1.866-.083 3.938-.074 3.24.019 3.678.037 3.883.175zm-1.336 4.649l-.028 1.086h-5.32l-.028-1.086-.028-1.077h5.432l-.028 1.077zm.654 3.038l.233.303H24c-3.388 0-3.565-.009-3.444-.165.402-.516.131-.479 3.472-.46l3.071.027.243.295zM.808 30.095c-.438.23-.57.8-.252 1.16.168.211 2.138.819 2.93.91.738.093 1.168-.386.916-.993-.131-.304-.402-.424-2.044-.857-1.382-.377-1.298-.359-1.55-.22zm44.799.221c-1.615.442-1.876.552-2.007.856-.14.332-.037.718.252.902.29.194.784.13 2.268-.294 1.25-.35 1.587-.571 1.587-1.022 0-.304-.476-.773-.766-.764-.12.009-.718.147-1.334.322zm-39.862 1.16c-.215.101-.411.442-.411.709 0 .313.364.644.868.782.27.074.961.258 1.54.424.915.248 1.083.267 1.297.166.486-.23.616-.765.29-1.197-.075-.102-.7-.322-1.606-.58-1.586-.442-1.67-.451-1.978-.304zm34.551.294c-1.484.424-1.83.617-1.83 1.059 0 .313.234.644.533.755.177.064.485.018 1.279-.203l1.52-.414c.505-.138.869-.47.869-.783 0-.432-.401-.828-.822-.81-.084 0-.783.184-1.549.396zm-29.605 1.197c-.327.267-.364.792-.075 1.068.197.203 2.642.92 3.118.92.392 0 .607-.128.737-.441.14-.322.019-.681-.29-.884-.12-.074-.55-.221-.96-.331a46.177 46.177 0 01-1.345-.378c-.755-.22-.877-.22-1.185.046zm25.723-.129c-.13.037-.718.203-1.306.36-.588.165-1.167.358-1.288.432-.308.202-.43.561-.29.884.234.552.588.57 2.352.073 1.466-.414 1.69-.552 1.69-1.068 0-.58-.523-.883-1.158-.68zM.35 36.475c-.308.285-.317.681-.018 1.03l.224.259H3.86l.224-.258c.298-.35.289-.746-.02-1.031-.242-.23-.28-.23-1.856-.23-1.578 0-1.615 0-1.858.23zm5.227-.037c-.299.24-.336.773-.065 1.105.177.212.233.22 1.698.248.831.019 1.615.01 1.736-.027.607-.148.822-.958.346-1.326-.234-.175-.374-.193-1.858-.193s-1.624.018-1.857.193zm5.226.037c-.308.285-.317.681-.018 1.03l.224.259h3.304l.224-.258c.298-.35.289-.746-.019-1.031-.243-.23-.28-.23-1.857-.23-1.578 0-1.615 0-1.858.23zm22.681 0c-.308.285-.317.681-.019 1.03l.224.259h3.304l.224-.258c.3-.35.29-.746-.018-1.031-.243-.23-.28-.23-1.858-.23-1.577 0-1.614 0-1.857.23zm5.226-.037c-.299.24-.336.773-.066 1.105.178.22.206.22 1.923.22 1.718 0 1.745 0 1.923-.22.27-.332.233-.866-.066-1.105-.233-.175-.373-.193-1.857-.193s-1.624.018-1.857.193zm5.227.037c-.308.285-.317.681-.018 1.03l.224.259h3.304l.223-.258c.3-.35.29-.746-.018-1.031-.243-.23-.28-.23-1.858-.23-1.577 0-1.614 0-1.857.23zm-31.641 2.909c-.719.193-1.4.423-1.522.497a.712.712 0 00-.298.875c.205.57.55.589 2.342.092 1.475-.414 1.7-.553 1.7-1.068 0-.387-.374-.783-.72-.764-.112 0-.793.166-1.502.368zm21.449-.157c-.327.267-.364.792-.075 1.068.196.194 2.65.92 3.127.92.401 0 .606-.137.728-.46.121-.35.01-.672-.29-.865-.224-.138-2.818-.884-3.089-.884-.084 0-.261.102-.401.221zm-10.09.884a.697.697 0 00-.298.267c-.066.12-.103 1.316-.103 3.462v3.277l.233.221a.692.692 0 001.027 0l.233-.22v-3.306c0-3.02-.018-3.333-.158-3.508-.196-.22-.635-.322-.934-.193zm2.903.184c-.262.102-.504.442-.504.7 0 .23.056.36.998 2.477.383.856.775 1.648.878 1.74.27.285.802.248 1.073-.074.299-.331.28-.497-.093-1.335a206.08 206.08 0 01-.85-1.896c-.672-1.501-.97-1.823-1.502-1.611zm-5.89.203c-.102.12-.429.746-.728 1.409-.289.653-.672 1.51-.85 1.896-.372.838-.391 1.123-.083 1.418.29.294.71.294 1.017.018.131-.11.532-.874.924-1.767 1.167-2.615 1.158-2.569.766-2.947-.299-.303-.784-.313-1.046-.027zM8.32 40.48c-.13.046-.774.23-1.446.405-1.288.35-1.54.506-1.54.966 0 .139.065.341.15.452.289.414.503.414 1.931.027 1.662-.451 1.783-.506 1.97-.764.177-.24.186-.442.046-.746-.168-.377-.606-.506-1.11-.34zm30.558.018c-.383.184-.513.718-.261 1.068.187.258.299.304 1.97.764 1.427.387 1.642.387 1.931-.028.196-.276.187-.653-.01-.893-.158-.184-.55-.313-2.482-.828-.802-.212-.868-.221-1.148-.083zM2.151 42.164c-.756.212-1.456.46-1.559.553-.578.515-.102 1.39.682 1.27.588-.083 2.818-.764 2.949-.902.159-.157.215-.36.187-.7-.019-.24-.439-.617-.682-.607-.121 0-.83.174-1.577.386zm41.684-.166c-.318.304-.346.792-.056 1.087.13.138 2.361.819 2.95.902.354.055.69-.102.84-.378.167-.322.111-.653-.169-.902-.187-.156-2.819-.939-3.183-.939-.084 0-.26.101-.382.23z" fill="currentColor"/></svg>