<svg width="53" height="43" viewBox="0 0 53 43" fill="none" xmlns="http://www.w3.org/2000/svg"><path d="M52.41 17.74H33.614v-.257c0-.193-.064-.386-.256-.514l-3.529-2.7a.583.583 0 00-.513-.257h-.321v-2.571h.385c.385 0 .642-.257.642-.643v-.321h5.58a3.083 3.083 0 003.08-3.085c0-1.672-1.411-3.086-3.08-3.086h-5.58v-.385c0-.386-.257-.643-.642-.643h-.32v-.771A2.508 2.508 0 0026.558 0c-1.412 0-2.502 1.093-2.502 2.507v.771h-.32c-.386 0-.642.257-.642.643v.385h-5.645a3.083 3.083 0 00-3.08 3.086c0 1.67 1.412 3.085 3.08 3.085h5.645v.321c0 .386.256.643.641.643h.32v2.571h-.192c-.128 0-.256.064-.384.128l-3.721 2.829c-.128.128-.257.321-.257.514v.257H.641c-.384 0-.641.257-.641.643v20.182c0 .386.257.643.641.643h18.925v.257c0 .193.064.385.256.514l3.72 2.892c.129.065.257.129.386.129h5.26c.128 0 .256-.064.385-.129l3.72-2.892c.129-.129.257-.321.257-.514v-.257h18.796c.385 0 .641-.257.641-.643V18.383c.064-.386-.192-.643-.577-.643zm-27.777-2.507h3.977V41.65h-3.977V15.233zm-.256-5.142V4.5h4.298v5.592h-4.298zm11.162-4.563c.962 0 1.796.835 1.796 1.8 0 .963-.834 1.8-1.796 1.8h-5.581v-3.6h5.58zm-10.2-3.086a1.22 1.22 0 011.219-1.22c.705 0 1.219.513 1.219 1.22v.772h-2.374v-.772h-.064zm-7.826 6.685c-.963 0-1.797-.836-1.797-1.8 0-.964.835-1.8 1.797-1.8h5.645v3.6h-5.645zm7.89 2.25h2.31v2.57h-2.31v-2.57zM1.283 37.922V19.025h18.282v18.897H1.284zm19.501-20.118l2.502-1.928v25.196l-2.502-1.928v-21.34zm11.547 21.34l-2.373 1.8V15.94l2.373 1.8v21.404zm19.437-1.222H33.614V19.025h18.154v18.897z" fill="currentColor"/><path d="M26.558 20.89a.706.706 0 10-.001-1.414.706.706 0 00.001 1.413zm0 4.241a.706.706 0 10-.001-1.412.706.706 0 00.001 1.412zm0 4.242a.706.706 0 10-.001-1.412.706.706 0 00.001 1.413zm0 4.307a.706.706 0 10-.001-1.413.706.706 0 00.001 1.413zm0 4.242a.706.706 0 10-.001-1.412.706.706 0 00.001 1.412z" fill="currentColor"/></svg>