<svg width="42" height="43" viewBox="0 0 42 43" fill="none" xmlns="http://www.w3.org/2000/svg"><path d="M11.083 6.515c-.69 0-1.357.153-1.98.455a4.514 4.514 0 00-2.315 2.598 4.533 4.533 0 00.201 3.475 4.577 4.577 0 004.099 2.57c.69 0 1.352-.154 1.975-.456a4.513 4.513 0 002.315-2.598 4.533 4.533 0 00-.201-3.475 4.567 4.567 0 00-4.094-2.57zm.005 7.904a3.37 3.37 0 01-3.02-1.893 3.342 3.342 0 01-.149-2.56 3.322 3.322 0 011.707-1.913 3.28 3.28 0 011.457-.335 3.37 3.37 0 013.015 1.893c.388.805.441 1.716.149 2.56a3.322 3.322 0 01-1.707 1.913 3.31 3.31 0 01-1.452.335z" fill="currentColor"/><path d="M12.295 20.08l.667.872c.096.13.24.211.398.23a.58.58 0 00.44-.115.602.602 0 00.116-.839l-.882-1.155a.59.59 0 00-.58-.225 7.924 7.924 0 01-2.733 0 .594.594 0 00-.513.153c-.014.015-.067.063-.081.096-.058.077-.56.71-1.39 1.735l-1.213-.517c.134-1.07.259-2 .273-2.085l.02-.067a.592.592 0 00-.245-.61 7.883 7.883 0 01-1.946-1.94.59.59 0 00-.556-.25l-2.253.259-.489-1.218 1.764-1.351a.603.603 0 00.225-.58 7.836 7.836 0 01-.01-2.737.603.603 0 00-.215-.566L1.328 7.746l.518-1.212 2.19.278a.601.601 0 00.57-.25A7.828 7.828 0 016.64 4.564a.605.605 0 00.254-.585l-.326-2.157 1.208-.484L9.08 2.986a.585.585 0 00.115.154c.134.13.33.192.523.163a7.87 7.87 0 012.722 0 .584.584 0 00.575-.23l1.41-1.735 1.217.517-.263 2.196a.595.595 0 00.249.56 7.792 7.792 0 011.917 1.927c.13.183.34.278.552.254l2.238-.234.494 1.227-1.678 1.323-.053.033a.593.593 0 00-.23.58 7.933 7.933 0 01-.005 2.713.606.606 0 00.26.604l1.212.983a.59.59 0 00.441.13.588.588 0 00.403-.221.584.584 0 00.13-.441.589.589 0 00-.221-.403l-.993-.805c.11-.8.11-1.61.005-2.406l1.817-1.429a.61.61 0 00.187-.695l-.83-2.061a.59.59 0 00-.618-.374l-2.344.245A8.954 8.954 0 0016.6 3.84l.278-2.292a.6.6 0 00-.36-.623L14.476.048a.614.614 0 00-.7.173l-1.485 1.836a9.3 9.3 0 00-2.421 0L8.442.235a.61.61 0 00-.696-.187l-2.06.83a.591.591 0 00-.375.642l.34 2.257A9.025 9.025 0 003.84 5.565l-2.296-.292a.612.612 0 00-.623.36l-.873 2.04a.6.6 0 00.173.7l1.85 1.491c-.11.81-.105 1.63.005 2.435l-1.84 1.414a.603.603 0 00-.193.7l.83 2.061c.1.245.36.403.623.374l2.363-.268a8.918 8.918 0 001.726 1.725 79.257 79.257 0 00-.302 2.301.605.605 0 00.36.628l2.046.877a.572.572 0 00.235.048.584.584 0 00.465-.225l.067-.082c.752-.93 1.184-1.466 1.424-1.773.795.105 1.61.11 2.415 0zm14.242.968a5.924 5.924 0 00-4.218 1.75 5.933 5.933 0 00-1.75 4.218c0 1.591.623 3.091 1.75 4.218a5.936 5.936 0 004.223 1.75 5.905 5.905 0 004.218-1.75 5.933 5.933 0 001.75-4.218 5.905 5.905 0 00-1.75-4.218 5.944 5.944 0 00-4.223-1.75zm0 10.737a4.743 4.743 0 01-3.374-1.4 4.743 4.743 0 01-1.4-3.374c0-1.275.498-2.473 1.4-3.375.9-.9 2.1-1.4 3.374-1.4 1.275 0 2.474.5 3.375 1.4.9.902 1.4 2.1 1.395 3.375a4.743 4.743 0 01-1.4 3.374 4.704 4.704 0 01-3.37 1.4z" fill="currentColor"/><path d="M41.603 25.841l-3.14-1.126a12.05 12.05 0 00-1.131-3.274l1.764-2.751a.606.606 0 00-.053-.72l-1.983-2.28a.602.602 0 00-.705-.149l-3.01 1.414a12.134 12.134 0 00-3.13-1.524l-.695-3.188a.597.597 0 00-.547-.47l-3.03-.206a.598.598 0 00-.594.394l-1.13 3.134a12.125 12.125 0 00-3.28 1.141l-2.756-1.768a.599.599 0 00-.719.052l-2.277 1.985a.6.6 0 00-.139.733l1.505 2.862a11.992 11.992 0 00-1.61 3.279l-3.197.675a.602.602 0 00-.475.547l-.21 3.015a.596.596 0 00.397.604l3.154 1.126c.225 1.15.614 2.263 1.155 3.298l-1.797 2.742a.612.612 0 00.048.724L16 38.386c.177.206.47.263.714.148l3.02-1.457c.978.666 2.042 1.18 3.154 1.53.087.507.278 1.423.652 3.158l.01.053a.607.607 0 00.546.474l3.015.206h.044a.604.604 0 00.565-.397c.676-1.889.978-2.728 1.122-3.164 1.15-.22 2.258-.604 3.293-1.146l2.746 1.793a.59.59 0 00.72-.053l2.281-1.984a.604.604 0 00.149-.71l-1.438-3.015a12.03 12.03 0 001.529-3.135l3.197-.685a.612.612 0 00.475-.546L42 26.44a.598.598 0 00-.398-.6zm-4.53 4.175a10.948 10.948 0 01-1.659 3.404.604.604 0 00-.057.608l1.395 2.92-1.596 1.39-2.666-1.74a.597.597 0 00-.618-.02 10.794 10.794 0 01-3.576 1.242.608.608 0 00-.484.436c-.043.14-.58 1.659-1.069 3.02l-2.114-.144a163.37 163.37 0 01-.618-2.99l-.005-.058a.594.594 0 00-.436-.518 10.786 10.786 0 01-3.432-1.659.604.604 0 00-.609-.052l-2.924 1.41-1.385-1.592 1.745-2.66a.595.595 0 00.019-.624 10.82 10.82 0 01-1.256-3.58.611.611 0 00-.388-.466l-3.054-1.092.144-2.11 3.101-.656a.593.593 0 00.451-.427c.355-1.27.944-2.464 1.75-3.547a.613.613 0 00.047-.637l-1.457-2.771 1.582-1.38 2.593 1.658a.585.585 0 00.695.077 10.986 10.986 0 013.562-1.242.596.596 0 00.47-.407l1.088-3.015 2.118.143.676 3.097a.596.596 0 00.422.446c1.208.345 2.354.9 3.394 1.654a.606.606 0 00.604.057l2.914-1.366 1.39 1.6-1.658 2.594a.61.61 0 00-.072.685 10.932 10.932 0 011.232 3.557.594.594 0 00.388.47l3.04 1.088-.145 2.114-3.106.666a.584.584 0 00-.436.417z" fill="currentColor"/></svg>