<svg width="58" height="45" viewBox="0 0 58 45" fill="none" xmlns="http://www.w3.org/2000/svg"><path d="M52.15 14.022v-9.69C52.15.904 36.936 0 28.895 0 20.85 0 5.641.905 5.641 4.331v19.977c0 3.144 12.795 4.163 21.122 4.314l-1.777-2.44v1.216c-4.532-.132-8.704-.483-12.018-1.029-5.877-.969-6.141-2.047-6.141-2.056v-8.772c3.073 1.802 11.532 2.548 18.16 2.753v3.926h1.185v-3.894c.969.023 1.887.032 2.723.032 6.696 0 18.346-.628 22.068-2.812v8.767c0 .01-.263 1.087-6.14 2.056-3.932.651-9.073 1.029-14.591 1.079l-.46.941s-.018.1-.05.25c8.214-.058 22.423-1.014 22.423-4.326l.005-10.291zM24.986 17.11c-4.532-.132-8.704-.482-12.018-1.028-5.877-.97-6.141-2.047-6.141-2.057v-8.18C9.9 7.648 18.359 8.394 24.987 8.6v8.512zm25.977-3.09c0 .014-.277 1.093-6.14 2.057-4.25.7-9.905 1.088-15.928 1.088-.918 0-1.827-.01-2.723-.028V8.631c.969.022 1.887.031 2.723.031 6.696 0 18.346-.627 22.068-2.811v8.17zm0-9.69c0 .014-.277 1.092-6.14 2.057-4.25.7-9.905 1.087-15.928 1.087-6.023 0-11.677-.387-15.927-1.087C7.09 5.418 6.827 4.34 6.827 4.33c0-.009.26-1.087 6.136-2.056 4.25-.7 9.905-1.088 15.928-1.088 6.022 0 11.677.387 15.927 1.088 5.882.969 6.145 2.043 6.145 2.056z" fill="currentColor"/><path d="M5.24 38.603V25.305l1.537-.887v-6.042H.473v4.445l1.036 1.965v13.817H0v1.047h7.586v-1.047H5.241zM1.837 22.484v-2.743h3.578v3.89l-1.537.887v14.085H2.873V24.445l-1.037-1.96zm48.576 16.119v1.047H58v-1.047h-1.51V24.786l1.037-1.965v-4.445h-6.305v6.042l1.536.887v13.298h-2.345zm4.714-14.158V38.6h-1.005V24.518l-1.536-.887v-3.89h3.577v2.743l-1.036 1.961zM26.064 43.863h1.363v-15.56l-2.39-2.834v-2.475h5.39v4.049l-1.554 1.187v15.633h1.363v-14.96l1.555-1.187V21.63h-8.118v4.34l2.39 2.83v15.064z" fill="currentColor"/><path d="M32.569 43.863H23.9V45h8.669v-1.137z" fill="currentColor"/></svg>