<svg width="42" height="42" viewBox="0 0 42 42" fill="none" xmlns="http://www.w3.org/2000/svg"><path d="M41.984 13.075c-.02-2.922-2.42-5.301-5.348-5.301h-6.579a.657.657 0 00.042-.225.58.58 0 00-.063-.26l1.373-1.373a2.409 2.409 0 000-3.396L29.593.699a2.404 2.404 0 00-3.396 0l-1.373 1.372a.629.629 0 00-.72.125l-5.582 5.578H9.157V.652A.652.652 0 008.504 0h-3.86A4.641 4.641 0 000 4.633l.016 28.93a5.293 5.293 0 002.848 4.68l-2.67 2.645A.649.649 0 00.653 42h26.544c.36 0 .652-.291.652-.651v-2.484h3.564v2.484c0 .36.292.652.652.652h4.565C39.59 42 42 39.6 42 36.647V13.502l-.016-.427zM6.71 38.155a.652.652 0 000-.924l-.486-.485 1.602-1.586.48.48a.671.671 0 00.924 0 .652.652 0 000-.924l-.475-.474 1.601-1.586.465.464a.671.671 0 00.923 0 .644.644 0 000-.918l-.459-.46 1.602-1.586.454.454a.672.672 0 00.923 0 .644.644 0 000-.918l-.448-.449 1.596-1.591.444.444a.672.672 0 00.923 0 .652.652 0 000-.924l-.438-.438 1.602-1.586.427.428a.672.672 0 00.924 0 .644.644 0 000-.919l-.423-.422 1.602-1.587.417.418a.672.672 0 00.924 0 .644.644 0 000-.918l-.412-.413 1.601-1.586.402.402a.671.671 0 00.924 0 .652.652 0 000-.923l-.402-.402 2.62-2.593v24.063H2.237l3.058-3.032.49.49c.25.251.678.251.924 0zm20.259-29.05l-3.966-3.966 1.555-1.555 3.965 3.965-1.554 1.555zm3.516-4.107L29.15 6.334l-3.37-3.37 1.335-1.336a1.102 1.102 0 011.555 0l1.815 1.82a1.096 1.096 0 010 1.55zm6.146 12.553h-4.565a.652.652 0 00-.652.652V37.56H27.85V15.068a.651.651 0 00-1.111-.46L3.856 37.258a4 4 0 01-2.536-3.705L1.304 7.81a4.374 4.374 0 003.073 1.268h12.84L6.183 20.113a2.906 2.906 0 00-.658 1.002L3.45 26.353a1.754 1.754 0 00.396 1.915c.501.5 1.247.657 1.91.396l5.238-2.076c.376-.152.715-.37 1.002-.658L28.842 9.078h7.794a4.053 4.053 0 014.044 4.023l.016.401c0 2.233-1.826 4.05-4.065 4.05zm-28.434 8.74l-2.38-2.38.81-2.045 3.61 3.61-2.04.814zm-2.922 1.157a.456.456 0 01-.506-.104.464.464 0 01-.105-.506l.637-1.602 1.58 1.581-1.606.631zm5.17-5.295l1.54.365.302 1.273-.944.944-3.966-3.965.945-.944 1.273.302.365 1.545a.65.65 0 00.485.48zm2.927.553l-.208-.882a.648.648 0 00-.486-.485l-1.539-.365-.365-1.545a.648.648 0 00-.485-.485l-.882-.209L22.085 6.057l3.965 3.966-12.678 12.683zM4.643 1.304h3.21v6.47h-3.47A3.083 3.083 0 011.304 4.7v-.068a3.337 3.337 0 013.34-3.329zm31.988 39.392h-3.913v-21.84h3.913a5.416 5.416 0 004.065-1.858v19.649c0 2.233-1.821 4.049-4.065 4.049z" fill="currentColor"/><path d="M16.993 37.55h4.22a2.184 2.184 0 002.182-2.181v-4.18c0-.897-.517-1.67-1.341-2.014a2.148 2.148 0 00-2.374.465l-4.226 4.184a2.14 2.14 0 00-.48 2.38 2.156 2.156 0 002.02 1.345zm5.103-2.181a.875.875 0 01-.877.876H17a.844.844 0 01-.81-.543.848.848 0 01.194-.954l4.226-4.185a.865.865 0 01.605-.26c.115 0 .235.025.35.072a.85.85 0 01.537.81v4.183h-.005z" fill="currentColor"/></svg>