<svg width="52" height="39" viewBox="0 0 52 39" fill="none" xmlns="http://www.w3.org/2000/svg"><path d="M49.494 3.243C49.494.396 39.392 0 33.361 0 27.331 0 17.23.396 17.23 3.243V8.07c-4.15-.08-13 0-14.801 1.74-.392.317-.47.712-.47.95v26.659H.783c-.47 0-.783.316-.783.79 0 .476.313.792.783.792h50.434c.47 0 .783-.316.783-.791 0-.475-.313-.791-.783-.791h-1.723V3.243zM31.482 21.596v5.459h-5.404v-5.459h5.404zm-5.325-1.582v-5.458h5.325v5.458h-5.325zm5.325-6.961h-5.404V7.594h5.404v5.459zm-5.325 15.584h5.325v4.35h-5.404v-4.35h.079zm5.325-22.625h-5.404V1.82c1.567-.158 3.368-.237 5.404-.237v4.43zM26.157 34.57h5.325v2.769h-5.404V34.57h.079zm21.77-31.327V37.34H33.049V1.503h.313c9.007 0 13.94 1.028 14.567 1.74zm-29.132 0c.392-.474 2.35-1.028 5.795-1.344v35.44h-5.795V3.243zm-15.27 7.595c.939-.791 6.812-1.424 13.626-1.266v27.767H3.524V10.838z" fill="currentColor"/></svg>