<svg width="52" height="39" viewBox="0 0 52 39" fill="none" xmlns="http://www.w3.org/2000/svg"><path fill-rule="evenodd" clip-rule="evenodd" d="M6.696 3.34v2.565h1.04c.762 0 1.049.01 1.08.04.057.058.057 13.092 0 13.15-.058.057-3.372.057-3.43 0-.03-.031-.04-.318-.04-1.08v-1.04H.216v13.77h5.13v-1.04c0-.762.01-1.05.04-1.08.058-.057 3.372-.057 3.43 0 .03.03.04.557.04 2.16v2.12l6.473-.004 6.47-.003.368.537c.985 1.434 1.91 2.548 2.71 3.257.864.766 1.505 1.178 2.197 1.41.645.216.014.203 9.757.203 9.71 0 9.295.007 10.098-.2a6.22 6.22 0 001.735-.711 6.393 6.393 0 003.071-4.76c.074-.634.074-17.995 0-18.63a6.434 6.434 0 00-1.39-3.307c-1.023-1.285-2.64-2.153-4.33-2.325-.233-.027-3.247-.037-9.197-.037-9.562 0-9.1-.007-9.67.172-1.495.473-3.25 2.136-5.032 4.769l-.317.469-1.704-.007c-1.151-.003-1.715-.017-1.745-.044-.061-.05-.064-7.688-.004-7.749.03-.03.318-.04 1.08-.04h1.04V.775H6.696V3.34zm11.84-.635c.026.027.04.216.04.635 0 .418-.014.607-.04.634-.058.058-9.852.058-9.91 0-.057-.057-.057-1.211 0-1.269.058-.057 9.852-.057 9.91 0zm-2.16 3.24c.03.03.04 1.998.04 8.64v8.6h1.89v-3.74c0-2.862.01-3.75.04-3.78.058-.057 2.292-.057 2.35 0 .057.058.057 15.252 0 15.31-.058.057-9.852.057-9.91 0-.057-.058-.057-24.972 0-25.03.058-.057 5.532-.057 5.59 0zm28.08 4.32c.057.058.057 26.052 0 26.11-.058.057-15.252.057-15.31 0-.057-.058-.057-1.212 0-1.27.03-.03 1.637-.04 7.02-.04h6.98v-1.89h-6.98c-5.383 0-6.99-.01-7.02-.04-.057-.058-.057-2.292 0-2.35.03-.03 1.637-.04 7.02-.04h6.98v-1.89h-6.98c-5.383 0-6.99-.01-7.02-.04-.03-.031-.04-.338-.04-1.175s.01-1.144.04-1.175c.03-.03 1.637-.04 7.02-.04h6.98v-1.89h-6.98c-5.383 0-6.99-.01-7.02-.04-.03-.031-.04-.338-.04-1.175s.01-1.144.04-1.175c.03-.03 1.637-.04 7.02-.04h6.98v-1.89h-6.98c-5.383 0-6.99-.01-7.02-.04-.03-.031-.04-.338-.04-1.175s.01-1.144.04-1.175c.03-.03 1.637-.04 7.02-.04h6.98v-1.89h-6.98c-5.383 0-6.99-.01-7.02-.04-.057-.058-.057-2.292 0-2.35.03-.03 1.637-.04 7.02-.04h6.98v-1.89h-6.98c-5.383 0-6.99-.01-7.02-.04-.027-.028-.04-.217-.04-.635 0-.419.013-.608.04-.635.058-.057 15.252-.057 15.31 0zm2.44.226c1.312.443 2.379 1.52 2.797 2.822.213.672.203.121.203 10.01 0 9.794.01 9.302-.19 9.946-.33 1.09-1.164 2.083-2.193 2.613-.324.168-.85.364-.972.364a.182.182 0 01-.115-.04c-.057-.058-.057-25.715 0-25.772.061-.06.156-.05.47.058zm-19.72.18c.057.057.057 25.241 0 25.298-.078.078-.183.038-.477-.182-1.15-.864-2.747-2.838-3.864-4.779l-.21-.361V15.99l.2-.341c1.124-1.955 2.72-3.929 3.874-4.796.294-.22.399-.26.476-.183zm-23.76 8.234c.057.058.057 9.852 0 9.91-.058.057-1.212.057-1.27 0-.057-.058-.057-9.852 0-9.91.027-.027.216-.04.635-.04.418 0 .607.013.634.04zm5.4 2.16c.057.058.057 5.532 0 5.59-.058.057-3.372.057-3.43 0-.057-.058-.057-5.532 0-5.59.058-.057 3.372-.057 3.43 0z" fill="currentColor"/></svg>