<svg width="42" height="42" viewBox="0 0 42 42" fill="none" xmlns="http://www.w3.org/2000/svg"><g clip-path="url(#clip0)" fill="#596088"><path d="M.133 3.853l2.801 4.901a.7.7 0 00.438.332l2.613.653 8.963 8.963.99-.99L6.835 8.61a.698.698 0 00-.325-.184L4 7.795 1.614 3.62l2.044-2.044 4.178 2.387.63 2.51c.03.124.094.237.184.326l9.103 9.104.99-.99L9.78 5.949l-.653-2.611a.701.701 0 00-.332-.439L3.894.098a.7.7 0 00-.84.112l-2.8 2.801a.7.7 0 00-.12.842zM29.245 13.8L13.84 29.206l-.99-.99L28.255 12.81l.99.99zm-18.1 15.95a.7.7 0 00-.6-.339H6.342a.7.7 0 00-.6.34l-2.101 3.5a.7.7 0 000 .722l2.1 3.501a.7.7 0 00.6.34h4.202a.7.7 0 00.6-.34l2.101-3.5a.7.7 0 000-.722l-2.1-3.501zm-.997 6.663H6.74l-1.68-2.8 1.68-2.802h3.41l1.68 2.801-1.68 2.801z"/><path d="M33.651 16.807a8.374 8.374 0 008.145-10.433.7.7 0 00-1.174-.327l-4.359 4.356-3.458-1.152-1.154-3.458 4.36-4.36a.7.7 0 00-.33-1.175A8.377 8.377 0 0025.25 8.404c.001.551.058 1.101.17 1.64L10.083 25.38a8.265 8.265 0 00-1.64-.17 8.403 8.403 0 108.403 8.402 8.245 8.245 0 00-.17-1.64l3.67-3.672 1.606 1.606a.7.7 0 00.99 0l.35-.35a.784.784 0 111.11 1.11l-.349.35a.7.7 0 000 .99l8.353 8.354a5.652 5.652 0 108.029-7.956l-.037-.037-8.353-8.352a.7.7 0 00-.99 0l-.35.35a.784.784 0 01-1.112-1.109l.002-.002.35-.35a.7.7 0 000-.99l-1.606-1.606 3.672-3.671c.54.111 1.089.168 1.64.17zm2.751 23.808a4.257 4.257 0 01-1.489-.272l5.469-5.469a4.246 4.246 0 01-3.98 5.74zm-7.933-18.2a2.185 2.185 0 003.081 3.078l7.858 7.865c.086.085.166.175.243.267l-5.987 5.987a4.045 4.045 0 01-.268-.242l-7.864-7.865a2.185 2.185 0 00-3.081-3.077l-1.12-1.12 6.018-6.01 1.12 1.118zm2.828-7.042L15.412 31.255a.701.701 0 00-.185.665 7.05 7.05 0 11-5.092-5.092.706.706 0 00.666-.185l15.88-15.882a.7.7 0 00.185-.665 6.97 6.97 0 017.183-8.683l-3.694 3.695a.7.7 0 00-.17.717l1.401 4.201a.7.7 0 00.443.443l4.202 1.4a.7.7 0 00.716-.169l3.694-3.693a6.967 6.967 0 01-8.682 7.182.701.701 0 00-.666.184h.004z"/><path d="M36.248 35.218l-.99.99-7.002-7.002.99-.99 7.002 7.002z"/></g><defs><clipPath id="clip0"><path fill="#fff" d="M0 0h42v42H0z"/></clipPath></defs></svg>