<svg width="40" height="40" viewBox="0 0 40 40" fill="none" xmlns="http://www.w3.org/2000/svg"><path d="M20 40c11.022 0 20-8.978 20-20S31.022 0 20 0 0 8.978 0 20s8.978 20 20 20zm0-37.244c9.511 0 17.244 7.733 17.244 17.244S29.511 37.244 20 37.244 2.756 29.511 2.756 20 10.489 2.756 20 2.756z" fill="#596088"/><path d="M16.666 26.978c.267.222.578.31.89.31.355 0 .71-.132.977-.4l11.689-11.821a1.395 1.395 0 000-1.956 1.395 1.395 0 00-1.956 0l-10.8 10.933-4.622-3.91c-.578-.49-1.466-.4-1.955.177-.49.578-.4 1.467.177 1.956l5.6 4.71z" fill="#596088"/></svg>