<svg width="40" height="40" viewBox="0 0 40 40" fill="none" xmlns="http://www.w3.org/2000/svg"><g clip-path="url(#clip0)" fill="#596088"><path d="M36.762 10.3c-.02-1.08-.04-2.1-.04-3.088a1.4 1.4 0 00-1.4-1.4c-5.988 0-10.547-1.72-14.347-5.415a1.4 1.4 0 00-1.952 0c-3.8 3.694-8.358 5.415-14.345 5.415a1.4 1.4 0 00-1.4 1.4c0 .987-.02 2.008-.04 3.088-.192 10.05-.455 23.814 16.303 29.623a1.4 1.4 0 00.916 0c16.76-5.809 16.497-19.573 16.305-29.624zM20 37.113C5.627 31.894 5.844 20.457 6.037 10.354c.012-.607.023-1.194.03-1.77C11.677 8.346 16.16 6.646 20 3.303c3.84 3.343 8.325 5.043 13.933 5.28.008.575.019 1.163.03 1.769.193 10.103.41 21.54-13.963 26.761z"/><path d="M24.82 15.136l-6.757 6.758-2.884-2.884a1.4 1.4 0 00-1.98 1.98l3.874 3.874a1.399 1.399 0 001.98 0l7.747-7.747a1.4 1.4 0 10-1.98-1.98z"/></g><defs><clipPath id="clip0"><path fill="#fff" d="M0 0h40v40H0z"/></clipPath></defs></svg>