<svg width="40" height="40" viewBox="0 0 40 40" fill="none" xmlns="http://www.w3.org/2000/svg"><path d="M18.823 25.936v-15.45a1.172 1.172 0 10-2.344 0v15.45a4.77 4.77 0 00-3.588 4.615 4.766 4.766 0 004.76 4.76 4.766 4.766 0 004.76-4.76 4.77 4.77 0 00-3.588-4.615zm-1.172 7.032a2.42 2.42 0 01-2.417-2.417 2.42 2.42 0 012.417-2.417 2.42 2.42 0 012.416 2.417 2.42 2.42 0 01-2.416 2.417z" fill="#596088"/><path d="M23.467 23.104V5.817A5.823 5.823 0 0017.65 0a5.823 5.823 0 00-5.816 5.817v17.287a9.446 9.446 0 00-3.632 7.447c0 5.21 4.238 9.449 9.448 9.449s9.448-4.239 9.448-9.45a9.446 9.446 0 00-3.632-7.446zM17.65 37.656c-3.918 0-7.104-3.187-7.104-7.105a7.106 7.106 0 013.118-5.883 1.17 1.17 0 00.514-.97V5.817a3.476 3.476 0 013.472-3.473 3.476 3.476 0 013.472 3.473v17.881c0 .389.192.752.513.97a7.107 7.107 0 013.119 5.883c0 3.918-3.187 7.105-7.104 7.105z" fill="#596088"/><path d="M30.614 18.71h-3.632a1.172 1.172 0 100 2.344h3.632a1.172 1.172 0 000-2.344zm0-4.688h-3.632a1.172 1.172 0 100 2.343h3.632a1.172 1.172 0 000-2.343zm0-4.689h-3.632a1.172 1.172 0 100 2.344h3.632a1.172 1.172 0 000-2.344zm-3.632-2.344h3.632a1.172 1.172 0 000-2.344h-3.632a1.172 1.172 0 000 2.344z" fill="#596088"/></svg>