<svg width="40" height="40" viewBox="0 0 40 40" fill="none" xmlns="http://www.w3.org/2000/svg"><g clip-path="url(#clip0)"><path d="M39.39 16.816l-3.29-.738a16.146 16.146 0 00-1.978-4.786l1.542-2.569a.782.782 0 00-.118-.954l-3.315-3.315a.782.782 0 00-.954-.118l-2.569 1.542A16.143 16.143 0 0023.921 3.9L23.184.61a.781.781 0 00-.762-.61h-4.688a.781.781 0 00-.762.61l-.746 3.324a16.144 16.144 0 00-4.724 1.976L8.878 4.336a.781.781 0 00-.954.118L4.61 7.769a.781.781 0 00-.118.954l1.6 2.665a16.124 16.124 0 00-1.915 4.657l-3.56.77a.781.781 0 00-.617.763v4.688c0 .367.257.685.616.763l3.595.779a16.198 16.198 0 001.892 4.566l-4.958 4.958A3.879 3.879 0 000 36.094a3.88 3.88 0 001.144 2.761A3.878 3.878 0 003.906 40a3.877 3.877 0 002.762-1.145l4.959-4.958a16.212 16.212 0 004.566 1.892l.778 3.595c.078.36.396.616.764.616h4.687a.781.781 0 00.764-.616l.77-3.562a16.153 16.153 0 004.656-1.913l2.665 1.598a.78.78 0 00.954-.117l3.315-3.315a.781.781 0 00.118-.954l-1.574-2.623a16.137 16.137 0 001.976-4.724l3.324-.746a.781.781 0 00.61-.762v-4.688a.782.782 0 00-.61-.762zM5.563 37.75a2.325 2.325 0 01-1.656.686 2.327 2.327 0 01-1.658-.686 2.327 2.327 0 01-.686-1.657c0-.626.243-1.215.687-1.657l11.17-11.172a.781.781 0 00.176-.836 7.037 7.037 0 011.566-7.534 7.013 7.013 0 016.335-1.916l-3.02 3.02a.781.781 0 00-.23.553v4.419c0 .431.35.781.782.781h4.42a.782.782 0 00.552-.229l3.02-3.02a7.027 7.027 0 01-1.916 6.335 7.036 7.036 0 01-7.533 1.566.781.781 0 00-.837.176L5.563 37.75zm22.564-21.014a.781.781 0 00-1.28-.269l-3.722 3.722H19.81v-3.315l3.723-3.722a.781.781 0 00-.27-1.28 8.6 8.6 0 00-9.206 1.917 8.596 8.596 0 00-2.09 8.72l-1.874 1.873a10.937 10.937 0 01-.952-4.461c0-6.031 4.906-10.938 10.937-10.938s10.938 4.907 10.938 10.938c0 6.03-4.907 10.937-10.938 10.937a10.93 10.93 0 01-4.46-.952l1.873-1.874a8.596 8.596 0 008.72-2.09 8.598 8.598 0 001.916-9.207zm10.31 4.903l-3.194.717a.781.781 0 00-.594.602 14.599 14.599 0 01-2.13 5.092.781.781 0 00-.018.835l1.51 2.516-2.453 2.452-2.553-1.532a.782.782 0 00-.827.014 14.615 14.615 0 01-5.037 2.067.781.781 0 00-.607.6l-.742 3.434h-3.427l-.75-3.464a.782.782 0 00-.601-.599 14.685 14.685 0 01-4.246-1.618l1.678-1.678a12.488 12.488 0 005.632 1.344c6.893 0 12.5-5.608 12.5-12.5 0-6.893-5.607-12.5-12.5-12.5-6.892 0-12.5 5.607-12.5 12.5 0 1.958.464 3.892 1.344 5.632l-1.678 1.678a14.68 14.68 0 01-1.618-4.245.781.781 0 00-.599-.601l-3.464-.75v-3.428l3.434-.742a.781.781 0 00.6-.607 14.593 14.593 0 012.067-5.037.781.781 0 00.015-.827L6.147 8.442 8.599 5.99l2.515 1.51a.781.781 0 00.834-.02 14.61 14.61 0 015.094-2.129.782.782 0 00.601-.593l.717-3.196h3.437l.709 3.166c.067.3.305.534.607.595a14.609 14.609 0 015.154 2.126c.25.165.574.171.832.017l2.46-1.476 2.451 2.452-1.476 2.46a.781.781 0 00.018.831 14.611 14.611 0 012.126 5.154c.06.302.294.54.595.607l3.165.71v3.436z" fill="#596088"/></g><defs><clipPath id="clip0"><path fill="#fff" d="M0 0h40v40H0z"/></clipPath></defs></svg>