<svg width="51" height="35" viewBox="0 0 51 35" fill="none" xmlns="http://www.w3.org/2000/svg"><path d="M41.695 25.538a4.71 4.71 0 00-3.323 1.37c-.893.894-1.392 2.057-1.392 3.303s.489 2.41 1.392 3.302a4.728 4.728 0 003.323 1.371c2.555 0 4.632-2.098 4.632-4.673s-2.077-4.673-4.632-4.673zm0 7.27c-1.433 0-2.638-1.185-2.638-2.597s1.205-2.596 2.638-2.596c1.413 0 2.555 1.163 2.555 2.596s-1.142 2.596-2.555 2.596zM42.9 9.97a1.008 1.008 0 00-.696-.27h-5.327c-.572 0-1.039.467-1.039 1.038v8.516c0 .571.467 1.039 1.039 1.039h8.453c.571 0 1.038-.468 1.038-1.039v-5.701a1.04 1.04 0 00-.342-.769L42.9 9.971zm1.391 8.245h-6.376v-6.449H41.8l2.492 2.244v4.206zm-27.956 7.322a4.71 4.71 0 00-3.323 1.37c-.893.894-1.391 2.057-1.391 3.303s.488 2.41 1.391 3.302a4.728 4.728 0 003.323 1.371c2.555 0 4.632-2.098 4.632-4.673s-2.077-4.673-4.632-4.673zm0 7.27c-1.433 0-2.637-1.185-2.637-2.597s1.204-2.596 2.637-2.596c1.413 0 2.555 1.163 2.555 2.596s-1.142 2.596-2.555 2.596zM9.41 26.814H7.32v-2.762c0-.571-.467-1.039-1.038-1.039s-1.039.468-1.039 1.039v3.8c0 .572.468 1.04 1.039 1.04h3.126c.57 0 1.038-.468 1.038-1.04 0-.57-.467-1.038-1.038-1.038zm5.265-5.66c0-.57-.467-1.038-1.039-1.038H1.038c-.57 0-1.038.467-1.038 1.038 0 .572.467 1.039 1.038 1.039h12.597c.572 0 1.039-.457 1.039-1.039zM3.147 17.407l12.596.072a1.05 1.05 0 001.05-1.028 1.028 1.028 0 00-1.029-1.049L3.167 15.33h-.01c-.571 0-1.038.457-1.038 1.028a1.029 1.029 0 001.028 1.049zm2.118-4.715h12.597c.571 0 1.038-.467 1.038-1.039 0-.57-.467-1.038-1.038-1.038H5.265a1.04 1.04 0 00-1.038 1.038c0 .572.467 1.039 1.038 1.039zm45.35-1.402L43.18 5.132a1.023 1.023 0 00-.664-.24h-8.744V1.155c0-.571-.468-1.038-1.039-1.038H6.283c-.571 0-1.039.467-1.039 1.038v7.602c0 .571.468 1.038 1.039 1.038S7.32 9.327 7.32 8.756V2.193h24.384v24.622h-8.516c-.57 0-1.038.467-1.038 1.039 0 .57.467 1.038 1.038 1.038h12.68c.571 0 1.039-.467 1.039-1.038 0-.572-.468-1.039-1.039-1.039h-2.087V6.97h8.37l6.771 5.608-.073 14.216h-1.08c-.57 0-1.038.468-1.038 1.039s.467 1.038 1.038 1.038h2.108c.572 0 1.039-.457 1.039-1.028L51 12.1a1.097 1.097 0 00-.384-.81z" fill="#596088"/></svg>