<svg width="29" height="47" viewBox="0 0 29 47" fill="none" xmlns="http://www.w3.org/2000/svg"><path d="M15.96 0s-.914 6.145 2.29 11.51c3.212 5.367 5.65 6.907 9.01 13.334 3.36 6.426-.61 13.813-5.189 15.353 0 0 5.345-5.374.914-13.2-4.422-7.826-7.494-10.923-8.548-16.273-1.054-5.35.61-7.37 1.524-10.749m.906 26.608s-.256-3.528-2.47-7.735c-1.97-3.693-4.67-8.546-2.076-16.38 0 0-5.345 5.051-2.075 12.505 1.095 2.484 2.396 4.29 3.565 6.235a227.852 227.852 0 013.105 5.375" fill="#fff"/><path d="M9.19 38.425s7.124.92 9.85-1.847c2.726-2.766 3.163-6.236 1.013-11.47 0 0 4.274 4.506 3.566 9.516-.708 5.051-5.295 9.722-14.453 3.784" fill="#E42927"/><path d="M8.35 24.181s-2.593 2.534-2.47 6.625c.107 4.1 1.145 7.85 3.97 9.673 3.35 2.161 10.006 3.071 10.006 3.071l-11.909.845-6.184-12.132 1.013-6.451 3.458-3.785 2.133 2.145" fill="#1680C2"/><path d="M12.345 36.338s2.948-3.28 2.75-6.55c-.205-3.28-2.338-5.325-4.372-8.282-2.034-2.973-2.948-3.378-3.163-5.73-.205-2.352-.708-3.172-1.325-1.839-.61 1.334-2.035 4.298-3.056 6.236C2.166 22.111-.28 26.318.025 32.868c.305 6.55 3.87 10.128 7.124 12.083 3.253 1.946 10.788 1.946 14.247-.1 3.459-2.045 6.415-4.811 7.527-9.11 0 0-3.87 6.344-9.85 7.065-6.003.72-9.388-.613-11.81-3.586-2.42-2.973-2.75-7.983-2.24-11.055.512-3.073 1.83-3.38 1.83-3.38s2.544 2.253 3.87 3.479 1.73 1.333 1.828 3.28c.107 1.945-.61 4.81-.206 4.81" fill="#E42927"/></svg>