<svg width="22" height="31" viewBox="0 0 22 31" fill="none" xmlns="http://www.w3.org/2000/svg"><path d="M11 30.924c2.673 0 5.237-1.133 7.128-3.15 1.89-2.016 2.952-4.75 2.952-7.602v-9.216c0-2.852-1.062-5.587-2.952-7.603C16.238 1.336 13.673.203 11 .203s-5.237 1.133-7.128 3.15C1.982 5.369.92 8.104.92 10.956v9.216c0 2.851 1.062 5.586 2.952 7.602 1.89 2.017 4.455 3.15 7.128 3.15zM2.36 10.956c0-2.445.91-4.789 2.53-6.517 1.62-1.728 3.818-2.7 6.11-2.7 2.291 0 4.489.972 6.11 2.7 1.62 1.728 2.53 4.072 2.53 6.517v9.216c0 2.444-.91 4.788-2.53 6.516-1.621 1.729-3.819 2.7-6.11 2.7-2.292 0-4.49-.971-6.11-2.7-1.62-1.728-2.53-4.072-2.53-6.516v-9.216z" fill="#fff"/></svg>