<svg width="60" height="60" viewBox="0 0 60 60" fill="none" xmlns="http://www.w3.org/2000/svg"><path d="M57.844 23.462a.87.87 0 10-1.694.404c.458 1.92.69 3.948.69 6.029 0 14.857-12.358 26.945-27.549 26.945-15.191 0-27.55-12.088-27.55-26.946 0-14.858 12.359-26.946 27.55-26.946 6.05 0 11.83 1.914 16.712 5.536a.87.87 0 001.038-1.398c-5.185-3.847-11.323-5.88-17.75-5.88C13.14 1.207 0 14.077 0 29.896 0 45.712 13.14 58.58 29.291 58.58c16.152 0 29.291-12.869 29.291-28.687a27.76 27.76 0 00-.738-6.432z" fill="#3A4B84"/><path d="M28.688 42.858a.872.872 0 01-.616-.254l-16.33-16.328a.87.87 0 011.23-1.232L28.651 40.72 58.269 7.546a.87.87 0 111.3 1.16L29.336 42.568a.87.87 0 01-.625.29h-.024z" fill="#3A4B84"/></svg>