<svg width="38" height="50" viewBox="0 0 38 50" fill="none" xmlns="http://www.w3.org/2000/svg"><path d="M37.769 9.98l-.051-.05v-.052L28.093.253l-.05-.05s-.052 0-.052-.051c0 0-.05 0-.05-.05C27.789 0 27.637 0 27.434 0H3.574c-.912 0-1.773.355-2.38.963l-.052.05A3.538 3.538 0 00.13 3.445v43.11c0 .963.406 1.824 1.013 2.432A3.538 3.538 0 003.574 50h30.851c.963 0 1.824-.405 2.432-1.013a3.538 3.538 0 001.013-2.432V10.486c0-.202-.05-.354-.101-.506zm-9.372-6.333l5.724 5.725h-4.205c-.405 0-.81-.152-1.063-.456a1.577 1.577 0 01-.456-1.064V3.647zm7.294 42.908c0 .355-.151.659-.405.912-.253.253-.557.405-.912.405h-30.8c-.355 0-.659-.152-.912-.354-.253-.254-.354-.557-.354-.912V3.394c0-.354.152-.658.405-.912l.05-.05c.254-.203.558-.355.862-.355H26.32v5.724c0 1.014.405 1.925 1.114 2.635.659.658 1.621 1.063 2.634 1.063h5.623v35.056z" fill="#CDD0E2"/><path d="M21.66 21.226c-.355-.304-.76-.506-1.217-.659a7.175 7.175 0 00-1.57-.151h-2.33c-.406 0-.659.1-.862.253-.152.152-.253.456-.253.861v6.535c0 .304 0 .507.101.71.051.202.152.303.304.405.152.1.406.151.76.151h2.33c.406 0 .76-.05 1.115-.1.304-.052.608-.153.912-.254.304-.152.557-.304.76-.507.304-.304.557-.608.76-.962.202-.355.354-.76.456-1.216.1-.456.152-.912.152-1.47 0-1.57-.456-2.785-1.419-3.596zm-1.318 6.282c-.152.101-.304.202-.456.253-.203.05-.355.101-.507.101h-2.077v-6.079h1.216c.558 0 1.013.051 1.419.203.405.101.709.405.962.861.253.456.405 1.115.405 1.976-.05 1.317-.354 2.178-.962 2.685zm-7.245-6.384c-.253-.253-.557-.405-.962-.506-.355-.101-.912-.152-1.57-.152H8.233c-.405 0-.71.101-.861.253-.203.152-.254.456-.254.861v6.89c0 .355.102.608.254.81.152.203.405.254.658.254.254 0 .456-.102.659-.304a1.29 1.29 0 00.253-.81v-2.534h1.672c1.114 0 1.925-.253 2.482-.709.557-.456.861-1.165.861-2.077 0-.405-.05-.81-.202-1.165-.203-.304-.405-.608-.659-.81zm-1.216 2.837a1.287 1.287 0 01-.658.456 3.368 3.368 0 01-1.064.152H8.943v-2.735h1.216c.81 0 1.317.152 1.621.405.253.253.355.557.355.962-.051.304-.102.558-.254.76zm13.882-3.596c-.304.05-.506.101-.658.202a.611.611 0 00-.355.355c-.101.152-.101.355-.101.659v6.838c0 .355.101.659.253.811.152.203.405.253.659.253.253 0 .456-.101.658-.253a1.29 1.29 0 00.253-.81v-2.94h2.99c.253 0 .455-.05.607-.202.152-.102.203-.304.203-.507a.65.65 0 00-.203-.506 1.085 1.085 0 00-.608-.203h-2.988v-2.28h3.546c.304 0 .506-.05.658-.202a.65.65 0 00.203-.507.65.65 0 00-.203-.507c-.152-.152-.354-.202-.658-.202h-4.256z" fill="#596088"/></svg>