<?xml version="1.0" encoding="utf-8"?><svg xmlns="http://www.w3.org/2000/svg" xmlns:xlink="http://www.w3.org/1999/xlink"><symbol fill="none" viewBox="0 0 16 16" id="arrow-left" xmlns="http://www.w3.org/2000/svg"><path d="M8 16l1.4-1.4L3.8 9H16V7H3.8l5.6-5.6L8 0 0 8l8 8z" fill="currentColor"/></symbol><symbol fill="none" viewBox="0 0 16 16" id="arrow-right" xmlns="http://www.w3.org/2000/svg"><path d="M8 0L6.6 1.4 12.2 7H0v2h12.2l-5.6 5.6L8 16l8-8-8-8z" fill="currentColor"/></symbol><symbol fill="none" viewBox="0 0 48 48" id="equip" xmlns="http://www.w3.org/2000/svg"><path fill-rule="evenodd" clip-rule="evenodd" d="M.34.662C.06.929.032 1.454.247 2.356c.383 1.593 1.54 2.836 3.22 3.47l.7.259 5.441.036 5.432.028v.865c0 .792.02.884.243 1.142l.243.285h5.488v4.493l-1.382.028c-1.353.037-1.39.046-2.025.35a4.036 4.036 0 00-1.857 1.85l-.29.598v11.324l.3.626c.363.755 1.11 1.52 1.782 1.823.27.12.485.276.485.34 0 .433.868 1.418 1.475 1.667l.298.12V34.504l-.84 1.124c-.924 1.224-.989 1.445-.616 1.878l.224.258h10.864l.224-.258c.374-.433.308-.654-.616-1.878l-.84-1.123V31.66l.308-.12c.598-.248 1.466-1.233 1.466-1.666 0-.065.214-.221.485-.35.7-.322 1.419-1.059 1.783-1.814l.298-.626V15.76l-.289-.598a4.037 4.037 0 00-1.857-1.85c-.635-.304-.672-.313-2.026-.35l-1.38-.028V8.441h5.431l.27-.267c.262-.257.271-.303.271-1.15v-.875l5.442-.028 5.432-.036.7-.258c1.68-.635 2.837-1.878 3.22-3.471.214-.902.186-1.427-.094-1.694-.289-.295-.7-.295-1.017-.028-.196.175-.261.35-.336.903-.056.377-.205.902-.327 1.16-.298.598-1.017 1.27-1.708 1.583l-.532.249H4.26l-.532-.249c-.69-.313-1.409-.985-1.708-1.583-.12-.258-.27-.783-.326-1.16-.075-.553-.14-.728-.336-.903C1.04.367.63.367.34.662zm31.034 5.846v.368H16.627V6.14h14.747v.368zm-5.927 6.352v4.373h-2.893l-.028-4.28c-.01-2.357 0-4.337.028-4.401.028-.092.382-.11 1.465-.092l1.428.027v4.373zm-4.433 3.554c.037 1.75.065 1.97.224 2.145.177.184.252.194 2.762.194 2.511 0 2.586-.01 2.763-.194.159-.175.187-.396.224-2.145l.047-1.943.924-.027c1.12-.028 1.726.12 2.268.58.214.175.485.516.606.764l.215.433v5.201c0 5.791.028 5.506-.653 6.251-.336.36-.607.488-.607.286 0-.055-.196-.304-.43-.552-.783-.82-.811-.83-5.357-.83-4.545 0-4.573.01-5.357.83-.233.248-.43.497-.43.552 0 .387-.914-.479-1.129-1.068-.102-.285-.13-1.363-.13-5.515 0-5.69-.019-5.45.597-6.14.541-.608 1.148-.801 2.483-.783l.933.019.047 1.942zm7.01 11.84c.14.082.316.313.41.497.15.313.15.386.037.718-.084.23-.252.45-.448.58-.317.211-.317.211-4.013.211-3.547 0-3.706-.009-4.004-.184-.364-.22-.607-.727-.523-1.086.103-.396.401-.746.719-.838.168-.055 1.866-.083 3.938-.074 3.24.019 3.678.037 3.883.175zm-1.336 4.649l-.028 1.086h-5.32l-.028-1.086-.028-1.077h5.432l-.028 1.077zm.654 3.038l.233.303H24c-3.388 0-3.565-.009-3.444-.165.402-.516.131-.479 3.472-.46l3.071.027.243.295zM.808 30.095c-.438.23-.57.8-.252 1.16.168.211 2.138.819 2.93.91.738.093 1.168-.386.916-.993-.131-.304-.402-.424-2.044-.857-1.382-.377-1.298-.359-1.55-.22zM45.607 30.316c-1.615.442-1.876.552-2.007.856-.14.332-.037.718.252.902.29.194.784.13 2.268-.294 1.25-.35 1.587-.571 1.587-1.022 0-.304-.476-.773-.766-.764-.12.009-.718.147-1.334.322zM5.745 31.476c-.215.101-.411.442-.411.709 0 .313.364.644.868.782.27.074.961.258 1.54.424.915.248 1.083.267 1.297.166.486-.23.616-.765.29-1.197-.075-.102-.7-.322-1.606-.58-1.586-.442-1.67-.451-1.978-.304zM40.296 31.77c-1.484.424-1.83.617-1.83 1.059 0 .313.234.644.533.755.177.064.485.018 1.279-.203l1.52-.414c.505-.138.869-.47.869-.783 0-.432-.401-.828-.822-.81-.084 0-.783.184-1.549.396zM10.691 32.967c-.327.267-.364.792-.075 1.068.197.203 2.642.92 3.118.92.392 0 .607-.128.737-.441.14-.322.019-.681-.29-.884-.12-.074-.55-.221-.96-.331-.411-.11-1.018-.277-1.345-.378-.755-.22-.877-.22-1.185.046zM36.414 32.838c-.13.037-.718.203-1.306.36-.588.165-1.167.358-1.288.432-.308.202-.43.561-.29.884.234.552.588.57 2.352.073 1.466-.414 1.69-.552 1.69-1.068 0-.58-.523-.883-1.158-.68zM.35 36.475c-.308.285-.317.681-.018 1.03l.224.259H3.86l.224-.258c.298-.35.289-.746-.02-1.031-.242-.23-.28-.23-1.856-.23-1.578 0-1.615 0-1.858.23zM5.577 36.438c-.299.24-.336.773-.065 1.105.177.212.233.22 1.698.248.831.019 1.615.01 1.736-.027.607-.148.822-.958.346-1.326-.234-.175-.374-.193-1.858-.193s-1.624.018-1.857.193zM10.803 36.475c-.308.285-.317.681-.018 1.03l.224.259h3.304l.224-.258c.298-.35.289-.746-.019-1.031-.243-.23-.28-.23-1.857-.23-1.578 0-1.615 0-1.858.23zM33.484 36.475c-.308.285-.317.681-.019 1.03l.224.259h3.304l.224-.258c.3-.35.29-.746-.018-1.031-.243-.23-.28-.23-1.858-.23-1.577 0-1.614 0-1.857.23zM38.71 36.438c-.299.24-.336.773-.066 1.105.178.22.206.22 1.923.22 1.718 0 1.745 0 1.923-.22.27-.332.233-.866-.066-1.105-.233-.175-.373-.193-1.857-.193s-1.624.018-1.857.193zM43.937 36.475c-.308.285-.317.681-.018 1.03l.224.259H47.447l.223-.258c.3-.35.29-.746-.018-1.031-.243-.23-.28-.23-1.858-.23-1.577 0-1.614 0-1.857.23zM12.296 39.384c-.719.193-1.4.423-1.522.497a.712.712 0 00-.298.875c.205.57.55.589 2.342.092 1.475-.414 1.7-.553 1.7-1.068 0-.387-.374-.783-.72-.764-.112 0-.793.166-1.502.368zM33.745 39.227c-.327.267-.364.792-.075 1.068.196.194 2.65.92 3.127.92.401 0 .606-.137.728-.46.121-.35.01-.672-.29-.865-.224-.138-2.818-.884-3.089-.884-.084 0-.261.102-.401.221zM23.655 40.111a.697.697 0 00-.298.267c-.066.12-.103 1.316-.103 3.462v3.277l.233.221a.692.692 0 001.027 0l.233-.22v-3.306c0-3.02-.018-3.333-.158-3.508-.196-.22-.635-.322-.934-.193zM26.558 40.295c-.262.102-.504.442-.504.7 0 .23.056.36.998 2.477.383.856.775 1.648.878 1.74.27.285.802.248 1.073-.074.299-.331.28-.497-.093-1.335a206.08 206.08 0 01-.85-1.896c-.672-1.501-.97-1.823-1.502-1.611zM20.668 40.498c-.102.12-.429.746-.728 1.409-.289.653-.672 1.51-.85 1.896-.372.838-.391 1.123-.083 1.418.29.294.71.294 1.017.018.131-.11.532-.874.924-1.767 1.167-2.615 1.158-2.569.766-2.947-.299-.303-.784-.313-1.046-.027zM8.32 40.48c-.13.046-.774.23-1.446.405-1.288.35-1.54.506-1.54.966 0 .139.065.341.15.452.289.414.503.414 1.931.027 1.662-.451 1.783-.506 1.97-.764.177-.24.186-.442.046-.746-.168-.377-.606-.506-1.11-.34zM38.878 40.498c-.383.184-.513.718-.261 1.068.187.258.299.304 1.97.764 1.427.387 1.642.387 1.931-.028.196-.276.187-.653-.01-.893-.158-.184-.55-.313-2.482-.828-.802-.212-.868-.221-1.148-.083zM2.151 42.164c-.756.212-1.456.46-1.559.553-.578.515-.102 1.39.682 1.27.588-.083 2.818-.764 2.949-.902.159-.157.215-.36.187-.7-.019-.24-.439-.617-.682-.607-.121 0-.83.174-1.577.386zM43.835 41.998c-.318.304-.346.792-.056 1.087.13.138 2.361.819 2.95.902.354.055.69-.102.84-.378.167-.322.111-.653-.169-.902-.187-.156-2.819-.939-3.183-.939-.084 0-.26.101-.382.23z" fill="currentColor"/></symbol><symbol fill="none" viewBox="0 0 58 45" id="install" xmlns="http://www.w3.org/2000/svg"><path d="M52.15 14.022v-9.69C52.15.904 36.936 0 28.895 0 20.85 0 5.641.905 5.641 4.331v19.977c0 3.144 12.795 4.163 21.122 4.314l-1.777-2.44v1.216c-4.532-.132-8.704-.483-12.018-1.029-5.877-.969-6.141-2.047-6.141-2.056v-8.772c3.073 1.802 11.532 2.548 18.16 2.753v3.926h1.185v-3.894c.969.023 1.887.032 2.723.032 6.696 0 18.346-.628 22.068-2.812v8.767c0 .01-.263 1.087-6.14 2.056-3.932.651-9.073 1.029-14.591 1.079l-.46.941s-.018.1-.05.25c8.214-.058 22.423-1.014 22.423-4.326l.005-10.291zM24.986 17.11c-4.532-.132-8.704-.482-12.018-1.028-5.877-.97-6.141-2.047-6.141-2.057v-8.18C9.9 7.648 18.359 8.394 24.987 8.6v8.512zm25.977-3.09c0 .014-.277 1.093-6.14 2.057-4.25.7-9.905 1.088-15.928 1.088-.918 0-1.827-.01-2.723-.028V8.631c.969.022 1.887.031 2.723.031 6.696 0 18.346-.627 22.068-2.811v8.17zm0-9.69c0 .014-.277 1.092-6.14 2.057-4.25.7-9.905 1.087-15.928 1.087-6.023 0-11.677-.387-15.927-1.087C7.09 5.418 6.827 4.34 6.827 4.33c0-.009.26-1.087 6.136-2.056 4.25-.7 9.905-1.088 15.928-1.088 6.022 0 11.677.387 15.927 1.088 5.882.969 6.145 2.043 6.145 2.056z" fill="currentColor"/><path d="M5.24 38.603V25.305l1.537-.887v-6.042H.473v4.445l1.036 1.965v13.817H0v1.047h7.586v-1.047H5.241zM1.837 22.484v-2.743h3.578v3.89l-1.537.887v14.085H2.873V24.445l-1.037-1.96zM50.413 38.603v1.047H58v-1.047H56.49V24.786l1.037-1.965v-4.445h-6.305v6.042l1.536.887v13.298h-2.345zm4.714-14.158V38.6h-1.005V24.518l-1.536-.887v-3.89h3.577v2.743l-1.036 1.961zM26.064 43.863h1.363v-15.56l-2.39-2.834v-2.475h5.39v4.049l-1.554 1.187v15.633h1.363v-14.96l1.555-1.187V21.63h-8.118v4.34l2.39 2.83v15.064z" fill="currentColor"/><path d="M32.569 43.863H23.9V45h8.669v-1.137z" fill="currentColor"/></symbol><symbol fill="none" viewBox="0 0 42 42" id="project" xmlns="http://www.w3.org/2000/svg"><path d="M41.984 13.075c-.02-2.922-2.42-5.301-5.348-5.301h-6.579a.657.657 0 00.042-.225.58.58 0 00-.063-.26l1.373-1.373a2.409 2.409 0 000-3.396L29.593.699a2.404 2.404 0 00-3.396 0l-1.373 1.372a.629.629 0 00-.72.125l-5.582 5.578H9.157V.652A.652.652 0 008.504 0h-3.86A4.641 4.641 0 000 4.633l.016 28.93a5.293 5.293 0 002.848 4.68l-2.67 2.645A.649.649 0 00.653 42h26.544c.36 0 .652-.291.652-.651v-2.484h3.564v2.484c0 .36.292.652.652.652h4.565C39.59 42 42 39.6 42 36.647V13.502l-.016-.427zM6.71 38.155a.652.652 0 000-.924l-.486-.485 1.602-1.586.48.48a.671.671 0 00.924 0 .652.652 0 000-.924l-.475-.474 1.601-1.586.465.464a.671.671 0 00.923 0 .644.644 0 000-.918l-.459-.46 1.602-1.586.454.454a.672.672 0 00.923 0 .644.644 0 000-.918l-.448-.449 1.596-1.591.444.444a.672.672 0 00.923 0 .652.652 0 000-.924l-.438-.438 1.602-1.586.427.428a.672.672 0 00.924 0 .644.644 0 000-.919l-.423-.422 1.602-1.587.417.418a.672.672 0 00.924 0 .644.644 0 000-.918l-.412-.413 1.601-1.586.402.402a.671.671 0 00.924 0 .652.652 0 000-.923l-.402-.402 2.62-2.593v24.063H2.237l3.058-3.032.49.49c.25.251.678.251.924 0zm20.259-29.05l-3.966-3.966 1.555-1.555 3.965 3.965-1.554 1.555zm3.516-4.107L29.15 6.334l-3.37-3.37 1.335-1.336a1.102 1.102 0 011.555 0l1.815 1.82a1.096 1.096 0 010 1.55zm6.146 12.553h-4.565a.652.652 0 00-.652.652V37.56H27.85V15.068a.651.651 0 00-1.111-.46L3.856 37.258a4 4 0 01-2.536-3.705L1.304 7.81a4.374 4.374 0 003.073 1.268h12.84L6.183 20.113a2.906 2.906 0 00-.658 1.002L3.45 26.353a1.754 1.754 0 00.396 1.915c.501.5 1.247.657 1.91.396l5.238-2.076c.376-.152.715-.37 1.002-.658L28.842 9.078h7.794a4.053 4.053 0 014.044 4.023l.016.401c0 2.233-1.826 4.05-4.065 4.05zm-28.434 8.74l-2.38-2.38.81-2.045 3.61 3.61-2.04.814zm-2.922 1.157a.456.456 0 01-.506-.104.464.464 0 01-.105-.506l.637-1.602 1.58 1.581-1.606.631zm5.17-5.295l1.54.365.302 1.273-.944.944-3.966-3.965.945-.944 1.273.302.365 1.545a.65.65 0 00.485.48zm2.927.553l-.208-.882a.648.648 0 00-.486-.485l-1.539-.365-.365-1.545a.648.648 0 00-.485-.485l-.882-.209L22.085 6.057l3.965 3.966-12.678 12.683zM4.643 1.304h3.21v6.47h-3.47A3.083 3.083 0 011.304 4.7v-.068a3.337 3.337 0 013.34-3.329zm31.988 39.392h-3.913v-21.84h3.913a5.416 5.416 0 004.065-1.858v19.649c0 2.233-1.821 4.049-4.065 4.049z" fill="currentColor"/><path d="M16.993 37.55h4.22c1.206 0 2.182-.981 2.182-2.181v-4.18c0-.897-.517-1.67-1.341-2.014a2.148 2.148 0 00-2.374.465l-4.226 4.184a2.14 2.14 0 00-.48 2.38 2.156 2.156 0 002.02 1.345zm5.103-2.181a.875.875 0 01-.877.876H17a.844.844 0 01-.81-.543.848.848 0 01.194-.954l4.226-4.185a.865.865 0 01.605-.26c.115 0 .235.025.35.072a.85.85 0 01.537.81v4.183h-.005z" fill="currentColor"/></symbol><symbol fill="none" viewBox="0 0 42 43" id="service" xmlns="http://www.w3.org/2000/svg"><path d="M11.083 6.515c-.69 0-1.357.153-1.98.455a4.514 4.514 0 00-2.315 2.598 4.533 4.533 0 00.201 3.475 4.577 4.577 0 004.099 2.57c.69 0 1.352-.154 1.975-.456a4.513 4.513 0 002.315-2.598 4.533 4.533 0 00-.201-3.475 4.567 4.567 0 00-4.094-2.57zm.005 7.904a3.37 3.37 0 01-3.02-1.893 3.342 3.342 0 01-.149-2.56 3.322 3.322 0 011.707-1.913 3.28 3.28 0 011.457-.335c1.275 0 2.459.743 3.015 1.893.388.805.441 1.716.149 2.56a3.322 3.322 0 01-1.707 1.913 3.31 3.31 0 01-1.452.335z" fill="currentColor"/><path d="M12.295 20.08l.667.872c.096.13.24.211.398.23a.58.58 0 00.44-.115.602.602 0 00.116-.839l-.882-1.155a.59.59 0 00-.58-.225 7.924 7.924 0 01-2.733 0 .594.594 0 00-.513.153c-.014.015-.067.063-.081.096-.058.077-.56.71-1.39 1.735l-1.213-.517c.134-1.07.259-2 .273-2.085l.02-.067a.592.592 0 00-.245-.61 7.883 7.883 0 01-1.946-1.94.59.59 0 00-.556-.25l-2.253.259-.489-1.218 1.764-1.351a.603.603 0 00.225-.58 7.836 7.836 0 01-.01-2.737.603.603 0 00-.215-.566L1.328 7.746l.518-1.212 2.19.278a.601.601 0 00.57-.25A7.828 7.828 0 016.64 4.564a.605.605 0 00.254-.585l-.326-2.157 1.208-.484L9.08 2.986a.585.585 0 00.115.154c.134.13.33.192.523.163a7.87 7.87 0 012.722 0 .584.584 0 00.575-.23l1.41-1.735 1.217.517-.263 2.196a.595.595 0 00.249.56 7.792 7.792 0 011.917 1.927c.13.183.34.278.552.254l2.238-.234.494 1.227-1.678 1.323-.053.033a.593.593 0 00-.23.58 7.933 7.933 0 01-.005 2.713.606.606 0 00.26.604l1.212.983a.59.59 0 00.441.13.588.588 0 00.403-.221.584.584 0 00.13-.441.589.589 0 00-.221-.403l-.993-.805c.11-.8.11-1.61.005-2.406l1.817-1.429a.61.61 0 00.187-.695l-.83-2.061a.59.59 0 00-.618-.374l-2.344.245A8.954 8.954 0 0016.6 3.84l.278-2.292a.6.6 0 00-.36-.623L14.476.048a.614.614 0 00-.7.173l-1.485 1.836a9.3 9.3 0 00-2.421 0L8.442.235a.61.61 0 00-.696-.187l-2.06.83a.591.591 0 00-.375.642l.34 2.257A9.025 9.025 0 003.84 5.565l-2.296-.292a.612.612 0 00-.623.36L.048 7.673a.6.6 0 00.173.7l1.85 1.491c-.11.81-.105 1.63.005 2.435l-1.84 1.414a.603.603 0 00-.193.7l.83 2.061c.1.245.36.403.623.374l2.363-.268a8.918 8.918 0 001.726 1.725c-.067.417-.159 1.141-.302 2.301a.605.605 0 00.36.628l2.046.877a.572.572 0 00.235.048.584.584 0 00.465-.225l.067-.082c.752-.93 1.184-1.466 1.424-1.773.795.105 1.61.11 2.415 0zM26.537 21.048a5.924 5.924 0 00-4.218 1.75 5.933 5.933 0 00-1.75 4.218c0 1.591.623 3.091 1.75 4.218a5.936 5.936 0 004.223 1.75 5.905 5.905 0 004.218-1.75 5.933 5.933 0 001.75-4.218 5.905 5.905 0 00-1.75-4.218 5.944 5.944 0 00-4.223-1.75zm0 10.737a4.743 4.743 0 01-3.374-1.4 4.743 4.743 0 01-1.4-3.374c0-1.275.498-2.473 1.4-3.375.9-.9 2.1-1.4 3.374-1.4 1.275 0 2.474.5 3.375 1.4.9.902 1.4 2.1 1.395 3.375a4.743 4.743 0 01-1.4 3.374 4.704 4.704 0 01-3.37 1.4z" fill="currentColor"/><path d="M41.603 25.841l-3.14-1.126a12.05 12.05 0 00-1.131-3.274l1.764-2.751a.606.606 0 00-.053-.72L37.06 15.69a.602.602 0 00-.705-.149l-3.01 1.414a12.134 12.134 0 00-3.13-1.524l-.695-3.188a.597.597 0 00-.547-.47l-3.03-.206a.598.598 0 00-.594.394l-1.13 3.134c-1.142.221-2.244.604-3.28 1.141l-2.756-1.768a.599.599 0 00-.719.052l-2.277 1.985a.6.6 0 00-.139.733l1.505 2.862a11.992 11.992 0 00-1.61 3.279l-3.197.675a.602.602 0 00-.475.547l-.21 3.015a.596.596 0 00.397.604l3.154 1.126c.225 1.15.614 2.263 1.155 3.298l-1.797 2.742a.612.612 0 00.048.724L16 38.386c.177.206.47.263.714.148l3.02-1.457c.978.666 2.042 1.18 3.154 1.53.087.507.278 1.423.652 3.158l.01.053a.607.607 0 00.546.474l3.015.206h.044c.249 0 .479-.158.565-.397.676-1.889.978-2.728 1.122-3.164 1.15-.22 2.258-.604 3.293-1.146l2.746 1.793a.59.59 0 00.72-.053l2.281-1.984a.604.604 0 00.149-.71l-1.438-3.015a12.03 12.03 0 001.529-3.135l3.197-.685a.612.612 0 00.475-.546L42 26.44a.598.598 0 00-.398-.6zm-4.53 4.175a10.948 10.948 0 01-1.659 3.404.604.604 0 00-.057.608l1.395 2.92-1.596 1.39-2.666-1.74a.597.597 0 00-.618-.02 10.794 10.794 0 01-3.576 1.242.608.608 0 00-.484.436c-.043.14-.58 1.659-1.069 3.02l-2.114-.144a163.37 163.37 0 01-.618-2.99l-.005-.058a.594.594 0 00-.436-.518 10.786 10.786 0 01-3.432-1.659.604.604 0 00-.609-.052l-2.924 1.41-1.385-1.592 1.745-2.66a.595.595 0 00.019-.624 10.82 10.82 0 01-1.256-3.58.611.611 0 00-.388-.466l-3.054-1.092.144-2.11 3.101-.656a.593.593 0 00.451-.427c.355-1.27.944-2.464 1.75-3.547a.613.613 0 00.047-.637l-1.457-2.771 1.582-1.38 2.593 1.658a.585.585 0 00.695.077 10.986 10.986 0 013.562-1.242.596.596 0 00.47-.407l1.088-3.015 2.118.143.676 3.097c.048.216.211.388.422.446 1.208.345 2.354.9 3.394 1.654a.606.606 0 00.604.057l2.914-1.366 1.39 1.6-1.658 2.594a.61.61 0 00-.072.685 10.932 10.932 0 011.232 3.557.594.594 0 00.388.47l3.04 1.088-.145 2.114-3.106.666a.584.584 0 00-.436.417z" fill="currentColor"/></symbol><symbol fill="none" viewBox="0 0 52 39" id="station" xmlns="http://www.w3.org/2000/svg"><path fill-rule="evenodd" clip-rule="evenodd" d="M6.696 3.34v2.565h1.04c.762 0 1.049.01 1.08.04.057.058.057 13.092 0 13.15-.058.057-3.372.057-3.43 0-.03-.031-.04-.318-.04-1.08v-1.04H.216v13.77h5.13v-1.04c0-.762.01-1.05.04-1.08.058-.057 3.372-.057 3.43 0 .03.03.04.557.04 2.16v2.12l6.473-.004 6.47-.003.368.537c.985 1.434 1.91 2.548 2.71 3.257.864.766 1.505 1.178 2.197 1.41.645.216.014.203 9.757.203 9.71 0 9.295.007 10.098-.2a6.22 6.22 0 001.735-.711 6.393 6.393 0 003.071-4.76c.074-.634.074-17.995 0-18.63a6.434 6.434 0 00-1.39-3.307c-1.023-1.285-2.64-2.153-4.33-2.325-.233-.027-3.247-.037-9.197-.037-9.562 0-9.1-.007-9.67.172-1.495.473-3.25 2.136-5.032 4.769l-.317.469-1.704-.007c-1.151-.003-1.715-.017-1.745-.044-.061-.05-.064-7.688-.004-7.749.03-.03.318-.04 1.08-.04h1.04V.775H6.696V3.34zm11.84-.635c.026.027.04.216.04.635 0 .418-.014.607-.04.634-.058.058-9.852.058-9.91 0-.057-.057-.057-1.211 0-1.269.058-.057 9.852-.057 9.91 0zm-2.16 3.24c.03.03.04 1.998.04 8.64v8.6h1.89v-3.74c0-2.862.01-3.75.04-3.78.058-.057 2.292-.057 2.35 0 .057.058.057 15.252 0 15.31-.058.057-9.852.057-9.91 0-.057-.058-.057-24.972 0-25.03.058-.057 5.532-.057 5.59 0zm28.08 4.32c.057.058.057 26.052 0 26.11-.058.057-15.252.057-15.31 0-.057-.058-.057-1.212 0-1.27.03-.03 1.637-.04 7.02-.04h6.98v-1.89h-6.98c-5.383 0-6.99-.01-7.02-.04-.057-.058-.057-2.292 0-2.35.03-.03 1.637-.04 7.02-.04h6.98v-1.89h-6.98c-5.383 0-6.99-.01-7.02-.04-.03-.031-.04-.338-.04-1.175s.01-1.144.04-1.175c.03-.03 1.637-.04 7.02-.04h6.98v-1.89h-6.98c-5.383 0-6.99-.01-7.02-.04-.03-.031-.04-.338-.04-1.175s.01-1.144.04-1.175c.03-.03 1.637-.04 7.02-.04h6.98v-1.89h-6.98c-5.383 0-6.99-.01-7.02-.04-.03-.031-.04-.338-.04-1.175s.01-1.144.04-1.175c.03-.03 1.637-.04 7.02-.04h6.98v-1.89h-6.98c-5.383 0-6.99-.01-7.02-.04-.057-.058-.057-2.292 0-2.35.03-.03 1.637-.04 7.02-.04h6.98v-1.89h-6.98c-5.383 0-6.99-.01-7.02-.04-.027-.028-.04-.217-.04-.635 0-.419.013-.608.04-.635.058-.057 15.252-.057 15.31 0zm2.44.226c1.312.443 2.379 1.52 2.797 2.822.213.672.203.121.203 10.01 0 9.794.01 9.302-.19 9.946-.33 1.09-1.164 2.083-2.193 2.613-.324.168-.85.364-.972.364a.182.182 0 01-.115-.04c-.057-.058-.057-25.715 0-25.772.061-.06.156-.05.47.058zm-19.72.18c.057.057.057 25.241 0 25.298-.078.078-.183.038-.477-.182-1.15-.864-2.747-2.838-3.864-4.779l-.21-.361V15.99l.2-.341c1.124-1.955 2.72-3.929 3.874-4.796.294-.22.399-.26.476-.183zm-23.76 8.234c.057.058.057 9.852 0 9.91-.058.057-1.212.057-1.27 0-.057-.058-.057-9.852 0-9.91.027-.027.216-.04.635-.04.418 0 .607.013.634.04zm5.4 2.16c.057.058.057 5.532 0 5.59-.058.057-3.372.057-3.43 0-.057-.058-.057-5.532 0-5.59.058-.057 3.372-.057 3.43 0z" fill="currentColor"/></symbol><symbol fill="none" viewBox="0 0 52 39" id="tank" xmlns="http://www.w3.org/2000/svg"><path d="M49.494 3.243C49.494.396 39.392 0 33.361 0 27.331 0 17.23.396 17.23 3.243V8.07c-4.15-.08-13 0-14.801 1.74-.392.317-.47.712-.47.95v26.659H.783c-.47 0-.783.316-.783.79 0 .476.313.792.783.792h50.434c.47 0 .783-.316.783-.791 0-.475-.313-.791-.783-.791h-1.723V3.243zM31.482 21.596v5.459h-5.404v-5.459h5.404zm-5.325-1.582v-5.458h5.325v5.458h-5.325zm5.325-6.961h-5.404V7.594h5.404v5.459zm-5.325 15.584h5.325v4.35h-5.404v-4.35h.079zm5.325-22.625h-5.404V1.82c1.567-.158 3.368-.237 5.404-.237v4.43zM26.157 34.57h5.325v2.769h-5.404V34.57h.079zm21.77-31.327V37.34H33.049V1.503h.313c9.007 0 13.94 1.028 14.567 1.74zm-29.132 0c.392-.474 2.35-1.028 5.795-1.344v35.44h-5.795V3.243zm-15.27 7.595c.939-.791 6.812-1.424 13.626-1.266v27.767H3.524V10.838z" fill="currentColor"/></symbol><symbol fill="none" viewBox="0 0 53 43" id="tubes" xmlns="http://www.w3.org/2000/svg"><path d="M52.41 17.74H33.614v-.257c0-.193-.064-.386-.256-.514l-3.529-2.7a.583.583 0 00-.513-.257h-.321v-2.571h.385c.385 0 .642-.257.642-.643v-.321h5.58a3.083 3.083 0 003.08-3.085c0-1.672-1.411-3.086-3.08-3.086h-5.58v-.385c0-.386-.257-.643-.642-.643h-.32v-.771C29.06 1.157 27.968 0 26.558 0c-1.412 0-2.502 1.093-2.502 2.507v.771h-.32c-.386 0-.642.257-.642.643v.385h-5.645a3.083 3.083 0 00-3.08 3.086c0 1.67 1.412 3.085 3.08 3.085h5.645v.321c0 .386.256.643.641.643h.32v2.571h-.192c-.128 0-.256.064-.384.128l-3.721 2.829c-.128.128-.257.321-.257.514v.257H.641c-.384 0-.641.257-.641.643v20.182c0 .386.257.643.641.643h18.925v.257c0 .193.064.385.256.514l3.72 2.892c.129.065.257.129.386.129h5.26c.128 0 .256-.064.385-.129l3.72-2.892c.129-.129.257-.321.257-.514v-.257h18.796c.385 0 .641-.257.641-.643V18.383c.064-.386-.192-.643-.577-.643zm-27.777-2.507h3.977V41.65h-3.977V15.233zm-.256-5.142V4.5h4.298v5.592h-4.298zm11.162-4.563c.962 0 1.796.835 1.796 1.8 0 .963-.834 1.8-1.796 1.8h-5.581v-3.6h5.58zm-10.2-3.086a1.22 1.22 0 011.219-1.22c.705 0 1.219.513 1.219 1.22v.772h-2.374v-.772h-.064zm-7.826 6.685c-.963 0-1.797-.836-1.797-1.8 0-.964.835-1.8 1.797-1.8h5.645v3.6h-5.645zm7.89 2.25h2.31v2.57h-2.31v-2.57zM1.283 37.922V19.025h18.282v18.897H1.284zm19.501-20.118l2.502-1.928v25.196l-2.502-1.928v-21.34zm11.547 21.34l-2.373 1.8V15.94l2.373 1.8v21.404zm19.437-1.222H33.614V19.025h18.154v18.897z" fill="currentColor"/><path d="M26.558 20.89a.706.706 0 10-.001-1.414.706.706 0 00.001 1.413zM26.558 25.131a.706.706 0 10-.001-1.412.706.706 0 00.001 1.412zM26.558 29.373a.706.706 0 10-.001-1.412.706.706 0 00.001 1.413zM26.558 33.68a.706.706 0 10-.001-1.413.706.706 0 00.001 1.413zM26.558 37.922a.706.706 0 10-.001-1.412.706.706 0 00.001 1.412z" fill="currentColor"/></symbol><symbol viewBox="0 0 28.7 27.9" id="web2ru" xmlns="http://www.w3.org/2000/svg"><path fill="currentColor" d="M5.5 25.1c1.5 0 2.6-1.2 2.6-2.6 0-.7-.2-1.3-.7-1.8l2.1-4c.2.1.5.1.7.1.6 0 1.2-.2 1.7-.6l2.9 2.4c-.1.3-.2.7-.2 1 0 1.5 1.2 2.6 2.6 2.6 1.5 0 2.6-1.2 2.6-2.6 0-.7-.3-1.4-.9-2l3.3-11.4c1.5 0 2.6-1.2 2.6-2.6 0-1.5-1.2-2.6-2.6-2.6-1.4 0-2.6 1-2.6 2.5 0 .9.5 1.7 1.2 2.2l-3.2 11.2h-.4c-.5 0-1 .2-1.5.5l-3-2.5c.1-.3.1-.5.1-.8 0-1.5-1.2-2.6-2.6-2.6-1.4 0-2.6 1.1-2.6 2.5 0 .6.2 1.3.7 1.7l-2.1 4.1c-.2-.1-.4-.1-.7-.1-1.5 0-2.6 1.2-2.6 2.6 0 1.4 1.1 2.8 2.6 2.8zm-1.2-2.7c0-.6.5-1.1 1.1-1.1.6 0 1.1.5 1.1 1.1 0 .6-.5 1.1-1.1 1.1-.6.1-1.1-.5-1.1-1.1zM9.1 14c0-.6.5-1.1 1.1-1.1.6 0 1.1.5 1.1 1.1 0 .6-.5 1.1-1.1 1.1-.6 0-1.1-.4-1.1-1.1zm7 5.5c0-.6.5-1.1 1.1-1.1.6 0 1.1.5 1.1 1.1 0 .6-.5 1.1-1.1 1.1-.6.1-1.1-.4-1.1-1.1zm5-16c0-.6.5-1.1 1.1-1.1.6 0 1.1.5 1.1 1.1 0 .6-.5 1.1-1.1 1.1-.6 0-1.1-.5-1.1-1.1zm7.4 22.9h-.2l-4.5-1.8-.4-.2v2H1.5V5.3h2.1l-.2-.4L1.5.2V0H0v27.9h28.7v-1.5h-.2z"/></symbol></svg>