<svg width="48" height="41" viewBox="0 0 48 41" fill="none" xmlns="http://www.w3.org/2000/svg"><path d="M24 0C18.365 0 0 .312 0 4.412v32.176C0 40.688 18.38 41 24 41c5.62 0 24-.312 24-4.412V4.412C48 .312 29.635 0 24 0zm0 2.228c11.389 0 19.26 1.204 21.376 2.184C43.26 5.392 35.39 6.596 24 6.596c-11.389 0-19.26-1.204-21.376-2.184C4.74 3.432 12.61 2.228 24 2.228zm0 36.544c-12.283 0-20.467-1.397-21.764-2.407v-29.8c4.89 1.992 16.487 2.244 21.257 2.259V35.86c0 .61.507 1.114 1.118 1.114.611 0 1.118-.505 1.118-1.114v-4.07h4.472c.611 0 1.118-.505 1.118-1.114 0-.61-.507-1.114-1.118-1.114h-4.457v-5.853h4.457c.611 0 1.118-.505 1.118-1.114 0-.61-.507-1.115-1.118-1.115h-4.457v-5.853h4.457c.611 0 1.118-.505 1.118-1.114 0-.609-.507-1.114-1.118-1.114h-4.457V8.81a146.59 146.59 0 006.977-.223v27.26c0 .608.506 1.113 1.118 1.113.61 0 1.117-.505 1.117-1.114V8.438A40.547 40.547 0 0045.764 6.55v29.8c-1.282 1.024-9.48 2.42-21.764 2.42z" fill="#596088"/></svg>