<svg width="80" height="80" viewBox="0 0 80 80" fill="none" xmlns="http://www.w3.org/2000/svg"><g clip-path="url(#clip0)" fill="#596088"><path d="M.253 7.339l5.336 9.336c.18.316.481.544.833.632l4.978 1.245 17.072 17.072 1.886-1.886L13.02 16.399a1.331 1.331 0 00-.619-.351l-4.783-1.2-4.542-7.954L6.969 3l7.957 4.547 1.2 4.782c.059.235.18.45.351.62l17.34 17.34 1.886-1.887L18.63 11.33l-1.244-4.975a1.336 1.336 0 00-.632-.835L7.417.186a1.334 1.334 0 00-1.6.214L.481 5.735A1.334 1.334 0 00.253 7.34zm55.453 18.948L26.363 55.63l-1.886-1.886L53.82 24.4l1.886 1.886zM21.227 56.668a1.333 1.333 0 00-1.143-.647H12.08c-.468 0-.902.245-1.143.647l-4.001 6.669c-.254.422-.254.95 0 1.374l4.001 6.668c.241.401.675.647 1.143.647h8.003c.468 0 .902-.246 1.143-.647l4.001-6.668a1.334 1.334 0 000-1.374l-4.001-6.669zm-1.898 12.69h-6.493l-3.201-5.334 3.201-5.336h6.493l3.201 5.336-3.2 5.335z"/><path d="M64.098 32.013c8.81.03 15.975-7.088 16.005-15.897.004-1.34-.16-2.676-.49-3.976a1.334 1.334 0 00-2.237-.622l-8.302 8.297-6.588-2.195-2.197-6.586 8.303-8.304a1.334 1.334 0 00-.626-2.238C59.423-1.67 50.745 3.5 48.582 12.042a15.92 15.92 0 00-.489 3.966c.003 1.05.112 2.097.324 3.125l-29.21 29.21a15.742 15.742 0 00-3.124-.325c-8.84 0-16.006 7.166-16.006 16.006 0 8.839 7.166 16.005 16.006 16.005 8.839 0 16.005-7.166 16.005-16.005a15.699 15.699 0 00-.325-3.126l6.993-6.992 3.059 3.058c.52.52 1.365.52 1.886 0l.667-.667a1.501 1.501 0 012.115 0 1.494 1.494 0 010 2.115l-.667.667c-.52.52-.52 1.365 0 1.886l15.91 15.91c4.186 4.224 11.001 4.254 15.225.07 4.222-4.185 4.253-11.001.068-15.224l-.069-.07-15.91-15.91a1.334 1.334 0 00-1.886 0l-.667.667a1.5 1.5 0 01-2.115 0 1.494 1.494 0 01-.003-2.112l.003-.003.667-.667c.52-.52.52-1.365 0-1.886l-3.059-3.058 6.994-6.993a15.69 15.69 0 003.124.324zm5.24 45.349a8.102 8.102 0 01-2.836-.518l10.417-10.417a8.088 8.088 0 01-7.58 10.935zm-15.11-34.665a4.163 4.163 0 005.869 5.86l14.968 14.981c.162.163.314.335.461.51L64.122 75.45a7.8 7.8 0 01-.51-.461L48.634 60.01a4.163 4.163 0 00-5.869-5.862l-2.133-2.134 11.463-11.446 2.134 2.129zm5.386-13.415l-30.257 30.25a1.336 1.336 0 00-.352 1.268c1.83 7.186-2.512 14.495-9.699 16.325-7.186 1.83-14.495-2.513-16.325-9.7-1.829-7.185 2.513-14.494 9.7-16.324a13.437 13.437 0 016.625 0c.455.111.935-.022 1.268-.352l30.25-30.251c.33-.332.464-.813.35-1.267-1.817-7.103 2.467-14.333 9.569-16.15a13.28 13.28 0 014.113-.39l-7.036 7.04a1.332 1.332 0 00-.322 1.363l2.667 8.003c.133.398.446.71.844.843l8.003 2.668c.479.16 1.007.035 1.364-.322l7.036-7.036c.016.255.024.507.024.758.037 7.328-5.873 13.3-13.202 13.338a13.288 13.288 0 01-3.36-.415 1.335 1.335 0 00-1.267.35h.007z"/><path d="M69.044 67.082l-1.886 1.886L53.82 55.631l1.886-1.887 13.338 13.338z"/></g><defs><clipPath id="clip0"><path fill="#fff" d="M0 0h80v80H0z"/></clipPath></defs></svg>