<svg width="80" height="80" viewBox="0 0 80 80" fill="none" xmlns="http://www.w3.org/2000/svg"><g clip-path="url(#clip0)" fill="#596088"><path d="M49.333 46.667h-1.466a1.312 1.312 0 01-1.235-.862 21.714 21.714 0 00-.525-1.257 1.315 1.315 0 01.266-1.488l1.046-1.047a4.01 4.01 0 00-.007-5.652l-3.768-3.768a4.01 4.01 0 00-5.653 0l-1.046 1.044a1.32 1.32 0 01-1.488.267 27.75 27.75 0 00-1.258-.533 1.31 1.31 0 01-.866-1.238v-1.466a4 4 0 00-4-4H24a4 4 0 00-4 4v1.466a1.312 1.312 0 01-.861 1.235c-.427.163-.844.337-1.258.525a1.318 1.318 0 01-1.488-.266l-1.046-1.046a4.01 4.01 0 00-5.652 0l-3.768 3.78a4.01 4.01 0 000 5.654L6.97 43.06c.393.39.5.985.266 1.488-.188.413-.362.83-.526 1.259a1.31 1.31 0 01-1.244.86H4a4 4 0 00-4 4V56a4 4 0 004 4h1.467a1.312 1.312 0 011.234.861c.163.427.338.844.526 1.258a1.315 1.315 0 01-.267 1.488l-1.045 1.046a4.01 4.01 0 000 5.652l3.768 3.768a4.01 4.01 0 005.653 0l1.045-1.044a1.32 1.32 0 011.488-.266c.414.188.831.362 1.259.533.523.186.873.682.872 1.237V76a4 4 0 004 4h5.333a4 4 0 004-4v-1.467a1.312 1.312 0 01.862-1.234c.426-.163.844-.338 1.257-.526a1.318 1.318 0 011.488.267l1.047 1.045a4.01 4.01 0 005.652-.006l3.768-3.768a4.01 4.01 0 000-5.654l-1.044-1.045c-.394-.39-.5-.985-.267-1.488.188-.413.363-.83.533-1.259A1.31 1.31 0 0147.867 60h1.466a4 4 0 004-4v-5.333a4 4 0 00-4-4zM50.667 56c0 .736-.597 1.333-1.334 1.333h-1.466a4.014 4.014 0 00-3.734 2.58c-.141.372-.294.74-.458 1.102a4.012 4.012 0 00.8 4.474l1.042 1.044c.521.52.522 1.365.001 1.886v.001l-3.769 3.768c-.52.52-1.364.52-1.885 0l-1.045-1.044a4.008 4.008 0 00-4.475-.8c-.361.164-.73.317-1.1.459a4.012 4.012 0 00-2.577 3.73V76c0 .736-.597 1.333-1.334 1.333H24A1.333 1.333 0 0122.667 76v-1.467a4.014 4.014 0 00-2.579-3.733 18.5 18.5 0 01-1.103-.459 4.013 4.013 0 00-4.474.8l-1.044 1.043a1.333 1.333 0 01-1.886.001h-.001L7.812 68.42a1.333 1.333 0 010-1.885l1.044-1.046a4.012 4.012 0 00.8-4.474c-.164-.362-.317-.73-.459-1.1a4.012 4.012 0 00-3.73-2.582H4A1.333 1.333 0 012.667 56v-5.333c0-.737.597-1.334 1.333-1.334h1.467A4.014 4.014 0 009.2 46.755c.141-.374.294-.741.459-1.103a4.012 4.012 0 00-.8-4.475L7.81 40.133a1.333 1.333 0 01-.001-1.885v-.001l3.769-3.768c.52-.52 1.364-.52 1.885 0l1.045 1.044a4.008 4.008 0 004.475.8c.361-.164.73-.318 1.1-.459a4.012 4.012 0 002.583-3.73v-1.467c0-.737.597-1.334 1.333-1.334h5.333c.737 0 1.334.597 1.334 1.334v1.466a4.013 4.013 0 002.578 3.734c.374.141.741.294 1.103.458a4.008 4.008 0 004.475-.8l1.044-1.042a1.341 1.341 0 011.886 0l3.768 3.768c.52.52.52 1.364 0 1.885l-1.044 1.045a4.012 4.012 0 00-.8 4.475c.164.361.318.73.459 1.1a4.012 4.012 0 003.73 2.577h1.467c.737 0 1.334.597 1.334 1.334V56z"/><path d="M38.64 52.8a12.013 12.013 0 00-.238-1.968c-.047-.217-.108-.432-.167-.648a11.988 11.988 0 00-.252-.812 20.13 20.13 0 00-.203-.552 11.888 11.888 0 00-.588-1.248c-.017-.03-.028-.064-.045-.095a11.83 11.83 0 00-1.2-1.748c-.039-.048-.083-.093-.123-.14a11.146 11.146 0 00-.572-.63c-.104-.107-.213-.208-.322-.312a12.588 12.588 0 00-.895-.772l-.219-.163a11.915 11.915 0 00-7.149-2.379c-.133 0-.267.02-.4.026a11.626 11.626 0 00-1.31.108 12.32 12.32 0 00-1.291.24c-6.42 1.66-10.28 8.21-8.621 14.63a12.007 12.007 0 008.63 8.623c.021 0 .044.007.067.012.46.115.927.204 1.397.267.31.038.621.046.933.06.208.012.4.042.618.042.38 0 .774-.025 1.177-.065.043 0 .085-.012.133-.017.324-.036.652-.084.987-.151.133-.025.257-.059.385-.088.235-.055.468-.112.708-.183.187-.056.368-.121.551-.185a21.8 21.8 0 00.561-.205c.19-.072.348-.155.52-.235.224-.103.447-.204.667-.324h.008a15.779 15.779 0 003.417-2.468 4.2 4.2 0 00.715-.875 14.236 14.236 0 002.099-6.257c.018-.241.032-.481.037-.721 0-.076.01-.148.01-.224.002-.188-.017-.362-.025-.543zm-2.657.873c0 .11-.01.222-.016.33-.024.324-.065.646-.12.97a9.353 9.353 0 01-4.685 6.534c-.166.086-.328.168-.49.242l-.112.054a9.652 9.652 0 01-2.432.736c-.058.009-.118.02-.178.028-.167.024-.33.044-.494.058a9.53 9.53 0 01-.65.034h-.279a9.365 9.365 0 01-.944-.06l-.16-.018a9.851 9.851 0 01-1.09-.205 9.333 9.333 0 01-.009-18.081v-.002A9.654 9.654 0 0126.667 44a9.21 9.21 0 011.14.077c.101.012.201.03.301.046.288.045.574.102.855.174l.275.07a9.419 9.419 0 012.033.857c.103.06.203.123.304.185.21.134.415.267.616.419.108.079.217.156.321.24.262.209.513.431.751.667.095.096.181.2.273.3a9.257 9.257 0 01.732.9c.134.192.267.392.387.594l.201.332c.172.317.326.643.46.978.052.133.098.266.146.4.086.245.161.493.226.744.034.133.071.252.1.38.077.361.133.726.168 1.093.008.097.008.196.015.293.019.307.024.615.012.924zM76 28h-4.193a1.301 1.301 0 01-1.243-.875 27.765 27.765 0 00-1.497-3.614 1.305 1.305 0 01.256-1.506l2.973-2.977a4 4 0 000-5.655l-5.669-5.66a4 4 0 00-5.655 0L58 10.684c-.393.4-1 .504-1.504.257a27.7 27.7 0 00-3.616-1.505A1.301 1.301 0 0152 8.193V4a4 4 0 00-4-4h-8a4 4 0 00-4 4v4.193a1.3 1.3 0 01-.874 1.243 27.786 27.786 0 00-3.615 1.504 1.303 1.303 0 01-1.505-.256l-2.978-2.973a4.008 4.008 0 00-5.654 0l-5.659 5.658a4 4 0 000 5.656l4.372 4.38a1.333 1.333 0 001.888-1.882L17.6 17.144a1.333 1.333 0 010-1.885L23.26 9.6c.52-.52 1.364-.52 1.884 0l2.98 2.973a3.964 3.964 0 004.58.752 25.23 25.23 0 013.268-1.358 3.967 3.967 0 002.695-3.774V4c0-.736.597-1.333 1.333-1.333h8c.737 0 1.334.597 1.334 1.333v4.193a3.965 3.965 0 002.694 3.772c1.12.376 2.213.83 3.27 1.36 1.53.76 3.374.456 4.58-.753L62.856 9.6a1.335 1.335 0 011.886 0l5.658 5.66c.52.52.52 1.364 0 1.884l-2.973 2.979a3.968 3.968 0 00-.752 4.581 25.23 25.23 0 011.359 3.268 3.965 3.965 0 003.773 2.695H76c.737 0 1.334.597 1.334 1.333v8c0 .736-.597 1.333-1.334 1.333h-4.193a3.965 3.965 0 00-3.772 2.695 25.145 25.145 0 01-1.36 3.27 3.97 3.97 0 00.753 4.58l2.974 2.978c.52.52.52 1.365 0 1.885L64.74 62.4c-.52.52-1.363.52-1.884 0l-4.38-4.372a1.333 1.333 0 10-1.884 1.888l4.38 4.372a4 4 0 005.655 0l5.659-5.657a4 4 0 000-5.656L69.316 50c-.4-.394-.503-1-.257-1.504a27.695 27.695 0 001.505-3.616c.182-.53.683-.885 1.243-.88H76a4 4 0 004-4v-8a4 4 0 00-4-4z"/><path d="M56.256 23.744c-6.773-6.759-17.739-6.759-24.512 0a1.333 1.333 0 001.886 1.885c5.689-5.766 14.975-5.828 20.741-.139 5.766 5.69 5.828 14.976.139 20.742l-.139.139a1.333 1.333 0 101.885 1.885c6.76-6.773 6.76-17.74 0-24.512z"/></g><defs><clipPath id="clip0"><path fill="#fff" d="M0 0h80v80H0z"/></clipPath></defs></svg>