<svg width="80" height="80" viewBox="0 0 80 80" fill="none" xmlns="http://www.w3.org/2000/svg"><g clip-path="url(#clip0)"><path d="M67.167 40c0-14.98-12.187-27.167-27.167-27.167-14.98 0-27.167 12.187-27.167 27.167 0 7.053 2.703 13.487 7.126 18.322l-5.777 5.777c-.843.842-.234 2.276.943 2.276.341 0 .682-.13.943-.39l5.785-5.786c4.842 4.353 11.214 6.968 18.148 6.968C54.981 67.166 67.168 54.979 67.168 40zM53.11 38.667H41.333V16.75c3.712 2.93 11.236 10.27 11.777 21.916zm-14.443-23.13v23.13H26.892c.382-8.052 4.16-14.025 7.357-17.682a1.333 1.333 0 00-2.007-1.755c-3.5 4.002-7.636 10.56-8.02 19.437h-8.685c.67-12.45 10.68-22.46 23.13-23.13zm-23.13 25.796h8.685c.481 11.323 7.007 18.934 11.322 22.76-10.892-2.01-19.39-11.299-20.007-22.76zm11.352 0h11.778v21.903c-6.598-5.238-11.364-12.914-11.778-21.903zm14.444 23.13v-23.13h11.775c-.395 8.332-4.412 14.457-7.812 18.191a1.333 1.333 0 101.971 1.795c3.719-4.083 8.115-10.804 8.51-19.986H60a1.333 1.333 0 000-2.666h-4.221c-.481-11.32-7.004-18.933-11.317-22.759C55.848 18.012 64.5 28.014 64.5 40c0 13.062-10.275 23.769-23.167 24.463zM69.99 68.27l-6.463-6.463a1.333 1.333 0 10-1.885 1.886l6.499 6.499C65.48 74.446 68.556 80 73.583 80A6.424 6.424 0 0080 73.583c0-5.15-5.784-8.181-10.01-5.313zm3.594 9.063a3.754 3.754 0 01-3.75-3.75 3.754 3.754 0 013.75-3.75 3.754 3.754 0 013.75 3.75 3.754 3.754 0 01-3.75 3.75zM9.808 11.86l6.5 6.5a1.333 1.333 0 101.885-1.886l-6.463-6.463C14.598 5.784 11.566 0 6.417 0A6.424 6.424 0 000 6.417c0 5.034 5.561 8.098 9.808 5.443zM6.417 2.667a3.754 3.754 0 013.75 3.75 3.754 3.754 0 01-3.75 3.75 3.754 3.754 0 01-3.75-3.75 3.754 3.754 0 013.75-3.75zm0 64.5A6.424 6.424 0 000 73.583 6.424 6.424 0 006.417 80a6.424 6.424 0 006.416-6.417 6.424 6.424 0 00-6.416-6.416zm0 10.166a3.754 3.754 0 01-3.75-3.75 3.754 3.754 0 013.75-3.75 3.754 3.754 0 013.75 3.75 3.754 3.754 0 01-3.75 3.75zm57.11-59.14l6.462-6.463C74.216 14.598 80 11.566 80 6.417A6.424 6.424 0 0073.583 0c-5.034 0-8.099 5.561-5.443 9.808l-6.5 6.5a1.333 1.333 0 101.886 1.885zM73.582 2.667a3.754 3.754 0 013.75 3.75 3.754 3.754 0 01-3.75 3.75 3.754 3.754 0 01-3.75-3.75 3.754 3.754 0 013.75-3.75z" fill="#596088"/></g><defs><clipPath id="clip0"><path fill="#fff" d="M0 0h80v80H0z"/></clipPath></defs></svg>