<svg width="45" height="36" viewBox="0 0 45 36" fill="none" xmlns="http://www.w3.org/2000/svg"><g clip-path="url(#clip0)"><path fill-rule="evenodd" clip-rule="evenodd" d="M35.6 22.93h6.831v-6.147H35.6v6.147zm-2.569 1.2a2.142 2.142 0 01-2.135 2.003h-7.541a2.128 2.128 0 01-2.128-1.955c0-.032 0-.07-.007-.102V15.59a2.135 2.135 0 012.135-1.994h7.54c1.135 0 2.073.88 2.136 2.002v8.533zm-8.226-13.1h4.625V7.441h-4.625v3.587zm-5.09-6.14a1.172 1.172 0 01-1.167-1.185c0-.636.52-1.154 1.167-1.154H34.52c.638 0 1.166.518 1.166 1.154v.024a1.16 1.16 0 01-1.166 1.154H19.715v.008zm-1.08 18.04h-6.201c-2.033 0-3.68 1.64-3.68 3.658v6.853H2.57v-9.192c0-4.114 3.372-7.466 7.509-7.466h8.557v6.147zm24.222-8.706h-7.525a4.694 4.694 0 00-3.333-3.053V7.44h2.521c2.057 0 3.735-1.663 3.735-3.712v-.024c0-2.04-1.67-3.705-3.735-3.705H19.715a3.734 3.734 0 00-3.735 3.737c0 2.048 1.678 3.713 3.735 3.713h2.521v3.728a4.678 4.678 0 00-3.333 3.054h-8.825C4.523 14.224 0 18.722 0 24.249v9.624C0 35.05.961 36 2.143 36h7.045a2.14 2.14 0 002.143-2.127v-7.277c0-.613.496-1.107 1.11-1.107h6.462a4.693 4.693 0 004.444 3.195h7.54a4.703 4.703 0 004.453-3.195h7.525a2.14 2.14 0 002.143-2.128V16.36a2.153 2.153 0 00-2.151-2.135z" fill="#596088"/></g><defs><clipPath id="clip0"><path fill="#fff" d="M0 0h45v36H0z"/></clipPath></defs></svg>