<svg width="80" height="80" viewBox="0 0 80 80" fill="none" xmlns="http://www.w3.org/2000/svg"><g clip-path="url(#clip0)" fill="#596088"><path d="M49.048 32.569l-12.02 11.353-5.769-5.935a1.662 1.662 0 10-2.384 2.317l6.92 7.103a1.693 1.693 0 002.35.05l13.221-12.47a1.662 1.662 0 00.066-2.352 1.701 1.701 0 00-2.384-.066z"/><path d="M40.13 15.097c-13.738 0-24.908 11.17-24.908 24.907 0 13.738 11.17 24.908 24.907 24.908 13.738 0 24.908-11.17 24.908-24.908 0-13.737-11.17-24.907-24.908-24.907zm0 46.48c-11.904 0-21.574-9.686-21.574-21.573s9.67-21.573 21.573-21.573c11.915 0 21.574 9.659 21.574 21.573 0 11.915-9.659 21.574-21.574 21.574z"/><path d="M74.407 30.834l.55-9.886a1.663 1.663 0 00-.917-1.584l-8.803-4.451-4.451-8.803a1.692 1.692 0 00-1.584-.917l-9.904.534L41.046.275a1.666 1.666 0 00-1.834 0l-8.253 5.452-9.886-.55a1.66 1.66 0 00-1.583.917l-4.452 8.803-8.803 4.45a1.69 1.69 0 00-.916 1.585l.55 9.886-5.452 8.253a1.666 1.666 0 000 1.834l5.435 8.269-.55 9.886a1.662 1.662 0 00.917 1.584l8.802 4.451 4.452 8.803c.302.59.921.948 1.584.917l9.886-.55 8.253 5.451a1.624 1.624 0 001.834 0l8.252-5.451 9.887.55a1.664 1.664 0 001.584-.917l4.45-8.803 8.804-4.451c.59-.303.948-.922.917-1.584l-.55-9.886 5.45-8.253a1.666 1.666 0 000-1.834l-5.417-8.253zm-3.102 16.973a1.565 1.565 0 00-.266 1.017l.516 9.352-8.319 4.202a1.645 1.645 0 00-.733.734l-4.202 8.319-9.352-.517a1.821 1.821 0 00-1.017.266l-7.803 5.152-7.802-5.151a1.65 1.65 0 00-.917-.284h-.083l-9.354.517-4.2-8.32a1.642 1.642 0 00-.735-.733l-8.336-4.185.517-9.352a1.822 1.822 0 00-.267-1.017l-5.15-7.803 5.15-7.802a1.56 1.56 0 00.267-1.017l-.517-9.353 8.32-4.201c.317-.16.575-.417.733-.734l4.201-8.32 9.354.518a1.83 1.83 0 001.017-.267l7.802-5.152 7.803 5.152c.298.204.657.298 1.017.267l9.352-.517 4.202 8.32c.159.316.416.574.733.733l8.32 4.2-.517 9.354c-.013.358.08.711.266 1.017l5.152 7.802-5.152 7.803z"/></g><defs><clipPath id="clip0"><path fill="#fff" d="M0 0h80v80H0z"/></clipPath></defs></svg>