<svg width="49" height="49" viewBox="0 0 49 49" fill="none" xmlns="http://www.w3.org/2000/svg"><path fill-rule="evenodd" clip-rule="evenodd" d="M15.78 42.356v4.875a.11.11 0 01-.109.108H4.261a.11.11 0 01-.109-.108v-4.875H15.78zM15.67 49c.98 0 1.77-.789 1.77-1.769v-6.536H2.49v6.536c0 .98.79 1.769 1.77 1.769h11.41z" fill="#596088"/><path fill-rule="evenodd" clip-rule="evenodd" d="M18.163 40.695H1.77a.11.11 0 01-.108-.108v-3.098c0-.066.05-.116.108-.116h16.386a.11.11 0 01.108.108v3.098a.1.1 0 01-.1.116zm0 1.66c.98 0 1.77-.788 1.77-1.768v-3.098a1.77 1.77 0 00-1.77-1.769H1.77A1.753 1.753 0 000 37.48v3.099c0 .988.789 1.777 1.769 1.777h16.394zM42.356 4.153h4.875a.11.11 0 01.108.108v11.402a.11.11 0 01-.108.108h-4.875V4.153zM49 4.26c0-.972-.797-1.77-1.769-1.77h-6.536v14.95h6.536c.98 0 1.77-.79 1.77-1.77V4.262z" fill="#596088"/><path fill-rule="evenodd" clip-rule="evenodd" d="M40.695 1.769v16.386a.11.11 0 01-.108.108h-3.098a.101.101 0 01-.116-.1V1.77a.11.11 0 01.108-.108h3.098c.066 0 .116.05.116.108zm1.661 0C42.356.797 41.559 0 40.587 0h-3.098c-.988 0-1.777.797-1.777 1.769v16.386c0 .98.789 1.769 1.769 1.769h3.098c.98 0 1.769-.79 1.769-1.77V1.77h.008z" fill="#596088"/><path fill-rule="evenodd" clip-rule="evenodd" d="M2.491 37.373H16.61v-.83c0-11.021 8.911-19.933 19.932-19.933h.83V2.492h-.83c-18.82 0-34.05 15.231-34.05 34.05v.83zM35.711 4.16v10.805c-11.27.423-20.322 9.476-20.746 20.746H4.161C4.592 18.47 18.47 4.592 35.71 4.16z" fill="#596088"/></svg>